<svg width="56" height="50" viewBox="0 0 56 50" fill="none" xmlns="http://www.w3.org/2000/svg">
<path d="M21.8017 25.5107V31.9666M21.8017 31.9666V37.766M21.8017 31.9666H15.2522M21.8017 31.9666H29.1178" stroke="#7A89FE" stroke-linecap="round"/>
<path fill-rule="evenodd" clip-rule="evenodd" d="M9.70593 0C9.15365 0 8.70593 0.447715 8.70593 1C8.70593 1.55228 9.15365 2 9.70593 2H24.2671L30.1019 6.77793L30.3783 7.00423H30.7355H54.0003V41.0339C54.0003 41.5862 54.448 42.0339 55.0003 42.0339C55.5526 42.0339 56.0003 41.5862 56.0003 41.0339V7.00423C56.0003 5.89966 55.1049 5.00423 54.0003 5.00423H31.0927L25.5342 0.452608C25.1768 0.159925 24.7291 0 24.2671 0H9.70593ZM24.5697 16.0919L25.1342 16.5831H25.8825H43.2944V47.6127H2V11.5788H19.3826L24.5697 16.0919ZM20.4131 9.82442L25.8825 14.5831H44.2944C44.8467 14.5831 45.2944 15.0308 45.2944 15.5831V48.6127C45.2944 49.165 44.8467 49.6127 44.2944 49.6127H1C0.447715 49.6127 0 49.165 0 48.6127V10.5788C0 10.0266 0.447715 9.57885 1 9.57885H19.7567C19.998 9.57885 20.2311 9.66607 20.4131 9.82442Z" fill="#7A89FE"/>
</svg>
