<svg width="14" height="17" viewBox="0 0 14 17" fill="none" xmlns="http://www.w3.org/2000/svg">
<path fill-rule="evenodd" clip-rule="evenodd" d="M7.17684 1.00435C6.15521 0.944156 5.20006 1.51271 4.7659 2.43945L4.28028 3.47606H3.02625C2.47396 3.47606 2.02625 3.92377 2.02625 4.47606V15.0912C2.02625 15.6435 2.47396 16.0912 3.02625 16.0912H11.1184C11.6706 16.0912 12.1184 15.6435 12.1184 15.0912V4.47606C12.1184 3.92377 11.6706 3.47606 11.1184 3.47606H9.9991L9.25057 2.22262C8.82617 1.51195 8.07753 1.05742 7.25122 1.00874L7.17684 1.00435ZM3.81181 4.47606L3.80555 4.48942H4.59193H9.7233H10.6043L10.5963 4.47606H11.1184L11.1184 15.0912H3.02625V4.47606H3.81181ZM8.83436 3.47606L8.39201 2.73533C8.13737 2.30893 7.68819 2.03622 7.1924 2.007L7.11802 2.00262C6.50504 1.9665 5.93195 2.30763 5.67146 2.86368L5.38458 3.47606H8.83436Z" fill="#FB8477"/>
<path d="M4.7659 2.43945L4.99229 2.54551L4.7659 2.43945ZM7.17684 1.00435L7.19154 0.754785L7.19154 0.754785L7.17684 1.00435ZM4.28028 3.47606V3.72606H4.43924L4.50667 3.58211L4.28028 3.47606ZM9.9991 3.47606L9.78446 3.60423L9.85721 3.72606H9.9991V3.47606ZM9.25057 2.22262L9.03593 2.3508L9.25057 2.22262ZM7.25122 1.00874L7.23652 1.2583H7.23652L7.25122 1.00874ZM3.80555 4.48942L3.57916 4.38336L3.41236 4.73942H3.80555V4.48942ZM3.81181 4.47606L4.0382 4.58211L4.205 4.22606H3.81181V4.47606ZM10.6043 4.48942V4.73942H11.0447L10.8189 4.36124L10.6043 4.48942ZM10.5963 4.47606V4.22606H10.1558L10.3816 4.60423L10.5963 4.47606ZM11.1184 4.47606H11.3684V4.22606H11.1184V4.47606ZM11.1184 15.0912V15.3412H11.3684V15.0912H11.1184ZM3.02625 15.0912H2.77625V15.3412H3.02625V15.0912ZM3.02625 4.47606V4.22606H2.77625V4.47606H3.02625ZM8.83436 3.47606V3.72606H9.27484L9.049 3.34788L8.83436 3.47606ZM8.39201 2.73533L8.17737 2.86351L8.39201 2.73533ZM7.1924 2.007L7.20711 1.75744L7.1924 2.007ZM7.11802 2.00262L7.10331 2.25219L7.11802 2.00262ZM5.67146 2.86368L5.89785 2.96974V2.96974L5.67146 2.86368ZM5.38458 3.47606L5.15819 3.37L4.99138 3.72606H5.38458V3.47606ZM4.99229 2.54551C5.38303 1.71144 6.24267 1.19974 7.16213 1.25392L7.19154 0.754785C6.06775 0.68857 5.01708 1.31398 4.53951 2.3334L4.99229 2.54551ZM4.50667 3.58211L4.99229 2.54551L4.53951 2.3334L4.05389 3.37L4.50667 3.58211ZM4.28028 3.22606H3.02625V3.72606H4.28028V3.22606ZM3.02625 3.22606C2.33589 3.22606 1.77625 3.7857 1.77625 4.47606H2.27625C2.27625 4.06184 2.61203 3.72606 3.02625 3.72606V3.22606ZM1.77625 4.47606V15.0912H2.27625V4.47606H1.77625ZM1.77625 15.0912C1.77625 15.7816 2.33589 16.3412 3.02625 16.3412V15.8412C2.61203 15.8412 2.27625 15.5054 2.27625 15.0912H1.77625ZM3.02625 16.3412H11.1184V15.8412H3.02625V16.3412ZM11.1184 16.3412C11.8087 16.3412 12.3684 15.7816 12.3684 15.0912H11.8684C11.8684 15.5054 11.5326 15.8412 11.1184 15.8412V16.3412ZM12.3684 15.0912V4.47606H11.8684V15.0912H12.3684ZM12.3684 4.47606C12.3684 3.7857 11.8087 3.22606 11.1184 3.22606V3.72606C11.5326 3.72606 11.8684 4.06184 11.8684 4.47606H12.3684ZM11.1184 3.22606H9.9991V3.72606H11.1184V3.22606ZM9.03593 2.3508L9.78446 3.60423L10.2137 3.34788L9.46521 2.09444L9.03593 2.3508ZM7.23652 1.2583C7.9802 1.30212 8.65397 1.7112 9.03593 2.3508L9.46521 2.09444C8.99837 1.31271 8.17487 0.812724 7.26593 0.759168L7.23652 1.2583ZM7.16213 1.25392L7.23652 1.2583L7.26593 0.759168L7.19154 0.754785L7.16213 1.25392ZM4.03194 4.59547L4.0382 4.58211L3.58542 4.37L3.57916 4.38336L4.03194 4.59547ZM4.59193 4.23942H3.80555V4.73942H4.59193V4.23942ZM9.7233 4.23942H4.59193V4.73942H9.7233V4.23942ZM10.6043 4.23942H9.7233V4.73942H10.6043V4.23942ZM10.3816 4.60423L10.3896 4.61759L10.8189 4.36124L10.8109 4.34788L10.3816 4.60423ZM11.1184 4.22606H10.5963V4.72606H11.1184V4.22606ZM11.3684 15.0912L11.3684 4.47606H10.8684L10.8684 15.0912H11.3684ZM3.02625 15.3412H11.1184V14.8412H3.02625V15.3412ZM2.77625 4.47606V15.0912H3.27625V4.47606H2.77625ZM3.81181 4.22606H3.02625V4.72606H3.81181V4.22606ZM9.049 3.34788L8.60665 2.60715L8.17737 2.86351L8.61972 3.60423L9.049 3.34788ZM8.60665 2.60715C8.30957 2.10969 7.78552 1.79152 7.20711 1.75744L7.1777 2.25657C7.59085 2.28091 7.96517 2.50818 8.17737 2.86351L8.60665 2.60715ZM7.20711 1.75744L7.13272 1.75305L7.10331 2.25219L7.1777 2.25657L7.20711 1.75744ZM7.13272 1.75305C6.41758 1.71092 5.74898 2.1089 5.44507 2.75763L5.89785 2.96974C6.11492 2.50637 6.5925 2.22209 7.10331 2.25219L7.13272 1.75305ZM5.44507 2.75763L5.15819 3.37L5.61097 3.58211L5.89785 2.96974L5.44507 2.75763ZM8.83436 3.22606H5.38458V3.72606H8.83436V3.22606Z" fill="#FB8477"/>
<path d="M12.8021 3.47607H1.51314C1.22974 3.47607 1 3.70581 1 3.98921C1 4.27261 1.22974 4.50235 1.51314 4.50235H12.8021C13.0855 4.50235 13.3153 4.27261 13.3153 3.98921C13.3153 3.70581 13.0855 3.47607 12.8021 3.47607Z" fill="#FB8477" stroke="#FB8477" stroke-width="0.5"/>
</svg>
