<svg width="245" height="62" viewBox="0 0 245 62" fill="none" xmlns="http://www.w3.org/2000/svg">
<g filter="url(#filter0_ii_1789_273)">
<path fill-rule="evenodd" clip-rule="evenodd" d="M235.047 17.8647L222.286 5.10425L198.703 5.10425C195.942 5.10425 193.703 7.34283 193.703 10.1043V51.1459C193.703 53.9073 195.942 56.1459 198.703 56.1459H230.047C232.808 56.1459 235.047 53.9073 235.047 51.1459L235.047 17.8647Z" fill="#8289AD"/>
</g>
<g filter="url(#filter1_dd_1789_273)">
<path d="M215.457 43.3855V26.1481H222.191V24.2449H206.559V26.1481H213.293V43.3855H215.457Z" fill="white"/>
</g>
<path d="M233.85 16.6682H223.483L235.047 28.2323L235.047 17.8645L233.85 16.6682Z" fill="url(#paint0_linear_1789_273)"/>
<path d="M235.047 17.8645L222.286 5.10408C222.286 12.1515 227.999 17.8645 235.047 17.8645Z" fill="#CDCFDE"/>
<g filter="url(#filter2_ii_1789_273)">
<path fill-rule="evenodd" clip-rule="evenodd" d="M173.797 19.9357C173.797 18.6097 173.27 17.3379 172.332 16.4002L162.501 6.56871C161.563 5.63103 160.291 5.10425 158.965 5.10425L137.453 5.10425C134.692 5.10425 132.453 7.34283 132.453 10.1043V51.1459C132.453 53.9073 134.692 56.1459 137.453 56.1459H168.797C171.558 56.1459 173.797 53.9073 173.797 51.1459L173.797 19.9357Z" fill="#4876F9"/>
</g>
<g filter="url(#filter3_dd_1789_273)">
<path d="M149.258 43.3853L153.102 29.2956H153.172L156.992 43.3853H159.138L163.972 26.4778H161.802L158.1 40.6623H158.006L154.186 26.4778H152.088L148.244 40.6623H148.15L144.448 26.4778H142.279L147.112 43.3853H149.258Z" fill="white"/>
</g>
<path d="M172.6 16.6682H162.233L173.797 28.2323L173.797 17.8645L172.6 16.6682Z" fill="url(#paint1_linear_1789_273)"/>
<path d="M173.797 17.8645L161.036 5.10408C161.036 12.1515 166.749 17.8645 173.797 17.8645Z" fill="#B5C8FC"/>
<g filter="url(#filter4_ii_1789_273)">
<path fill-rule="evenodd" clip-rule="evenodd" d="M112.547 17.8647L99.7865 5.10425L76.2031 5.10425C73.4417 5.10425 71.2031 7.34283 71.2031 10.1043V51.1459C71.2031 53.9073 73.4417 56.1459 76.2031 56.1459H107.547C110.308 56.1459 112.547 53.9073 112.547 51.1459L112.547 17.8647Z" fill="#32BD7A"/>
</g>
<g filter="url(#filter5_dd_1789_273)">
<path d="M86.1457 43.3855L91.8608 35.1825L97.6055 43.3855H100.329L93.1821 33.44L99.8144 24.2449H97.091L91.8608 31.6973L86.6562 24.2449H83.9337L90.5127 33.44L83.4214 43.3855H86.1457Z" fill="white"/>
</g>
<path d="M111.35 16.6682H100.983L112.547 28.2323L112.547 17.8645L111.35 16.6682Z" fill="url(#paint2_linear_1789_273)"/>
<path d="M112.547 17.8645L99.7865 5.10408C99.7865 12.1515 105.499 17.8645 112.547 17.8645Z" fill="#BFE6C1"/>
<g filter="url(#filter6_ii_1789_273)">
<path fill-rule="evenodd" clip-rule="evenodd" d="M51.2969 17.8647L38.5365 5.10425L14.9531 5.10425C12.1917 5.10425 9.95312 7.34283 9.95312 10.1043V51.1459C9.95312 53.9073 12.1917 56.1459 14.9531 56.1459H46.2969C49.0583 56.1459 51.2969 53.9073 51.2969 51.1459L51.2969 17.8647Z" fill="#FA4E4E"/>
</g>
<path d="M38.9145 39.4791C37.1921 39.3512 35.5339 38.7116 34.1944 37.5603C31.5792 38.1358 29.0912 38.9671 26.6036 39.9908C24.6263 43.5085 22.7764 45.2995 21.1817 45.2995C20.8626 45.2995 20.4801 45.2357 20.2249 45.0436C19.5231 44.724 19.1406 44.0202 19.1406 43.3168C19.1406 42.741 19.2682 41.1421 25.3278 38.5195C26.7315 35.9611 27.8155 33.3388 28.7087 30.5886C27.9431 29.0535 26.2849 25.2797 27.4327 23.3611C27.8155 22.6574 28.5811 22.2736 29.4105 22.3377C30.0482 22.3377 30.6859 22.6574 31.0687 23.1691C31.8982 24.3204 31.8344 26.7509 30.7497 30.3328C31.7706 32.2489 33.1076 33.9788 34.7045 35.4497C36.0443 35.1935 37.3836 35.0018 38.7231 35.0018C41.7211 35.0656 42.1678 36.4728 42.104 37.3044C42.104 39.4791 39.9988 39.4791 38.9145 39.4791V39.4791ZM21.0544 43.4444L21.2458 43.3806C22.1387 43.061 22.8402 42.4214 23.3506 41.5897C22.3936 41.9735 21.6283 42.6131 21.0544 43.4447V43.4444ZM29.5378 24.2566H29.3464C29.2826 24.2566 29.155 24.2566 29.0912 24.3204C28.836 25.4076 29.0274 26.5589 29.474 27.5823C29.8568 26.4951 29.8568 25.3438 29.5378 24.2566V24.2566ZM29.9844 33.5309L29.9206 33.6585L29.8568 33.5947C29.2826 35.0659 28.6446 36.5369 27.9431 37.9441L28.0707 37.8802V38.0079C29.4892 37.4936 30.9377 37.0664 32.4083 36.7286L32.3445 36.6648H32.5359C31.5788 35.7052 30.6859 34.618 29.9844 33.5309V33.5309ZM38.6593 36.9207C38.0851 36.9207 37.575 36.9207 37.0007 37.0483C37.6388 37.3682 38.2768 37.4962 38.9145 37.5603C39.3611 37.6241 39.8077 37.5603 40.1902 37.4324C40.1902 37.2403 39.935 36.9207 38.6593 36.9207Z" fill="white"/>
<path d="M50.0998 16.6682H39.7329L51.297 28.2323L51.297 17.8645L50.0998 16.6682Z" fill="url(#paint3_linear_1789_273)"/>
<path d="M51.2969 17.8645L38.5365 5.10408C38.5365 12.1515 44.2495 17.8645 51.2969 17.8645Z" fill="#FDB8B8"/>
<defs>
<filter id="filter0_ii_1789_273" x="193.703" y="4.10425" width="41.3438" height="53.0417" filterUnits="userSpaceOnUse" color-interpolation-filters="sRGB">
<feFlood flood-opacity="0" result="BackgroundImageFix"/>
<feBlend mode="normal" in="SourceGraphic" in2="BackgroundImageFix" result="shape"/>
<feColorMatrix in="SourceAlpha" type="matrix" values="0 0 0 0 0 0 0 0 0 0 0 0 0 0 0 0 0 0 127 0" result="hardAlpha"/>
<feOffset dy="-2"/>
<feGaussianBlur stdDeviation="0.5"/>
<feComposite in2="hardAlpha" operator="arithmetic" k2="-1" k3="1"/>
<feColorMatrix type="matrix" values="0 0 0 0 0 0 0 0 0 0 0 0 0 0 0 0 0 0 0.3 0"/>
<feBlend mode="normal" in2="shape" result="effect1_innerShadow_1789_273"/>
<feColorMatrix in="SourceAlpha" type="matrix" values="0 0 0 0 0 0 0 0 0 0 0 0 0 0 0 0 0 0 127 0" result="hardAlpha"/>
<feOffset dy="2"/>
<feGaussianBlur stdDeviation="0.5"/>
<feComposite in2="hardAlpha" operator="arithmetic" k2="-1" k3="1"/>
<feColorMatrix type="matrix" values="0 0 0 0 1 0 0 0 0 1 0 0 0 0 1 0 0 0 0.3 0"/>
<feBlend mode="normal" in2="effect1_innerShadow_1789_273" result="effect2_innerShadow_1789_273"/>
</filter>
<filter id="filter1_dd_1789_273" x="205.559" y="23.2449" width="24.6313" height="30.1406" filterUnits="userSpaceOnUse" color-interpolation-filters="sRGB">
<feFlood flood-opacity="0" result="BackgroundImageFix"/>
<feColorMatrix in="SourceAlpha" type="matrix" values="0 0 0 0 0 0 0 0 0 0 0 0 0 0 0 0 0 0 127 0" result="hardAlpha"/>
<feOffset dx="4" dy="6"/>
<feGaussianBlur stdDeviation="2"/>
<feColorMatrix type="matrix" values="0 0 0 0 0 0 0 0 0 0 0 0 0 0 0 0 0 0 0.1 0"/>
<feBlend mode="normal" in2="BackgroundImageFix" result="effect1_dropShadow_1789_273"/>
<feColorMatrix in="SourceAlpha" type="matrix" values="0 0 0 0 0 0 0 0 0 0 0 0 0 0 0 0 0 0 127 0" result="hardAlpha"/>
<feOffset/>
<feGaussianBlur stdDeviation="0.5"/>
<feColorMatrix type="matrix" values="0 0 0 0 0 0 0 0 0 0 0 0 0 0 0 0 0 0 0.4 0"/>
<feBlend mode="normal" in2="effect1_dropShadow_1789_273" result="effect2_dropShadow_1789_273"/>
<feBlend mode="normal" in="SourceGraphic" in2="effect2_dropShadow_1789_273" result="shape"/>
</filter>
<filter id="filter2_ii_1789_273" x="132.453" y="4.10425" width="41.3438" height="53.0417" filterUnits="userSpaceOnUse" color-interpolation-filters="sRGB">
<feFlood flood-opacity="0" result="BackgroundImageFix"/>
<feBlend mode="normal" in="SourceGraphic" in2="BackgroundImageFix" result="shape"/>
<feColorMatrix in="SourceAlpha" type="matrix" values="0 0 0 0 0 0 0 0 0 0 0 0 0 0 0 0 0 0 127 0" result="hardAlpha"/>
<feOffset dy="-2"/>
<feGaussianBlur stdDeviation="0.5"/>
<feComposite in2="hardAlpha" operator="arithmetic" k2="-1" k3="1"/>
<feColorMatrix type="matrix" values="0 0 0 0 0 0 0 0 0 0 0 0 0 0 0 0 0 0 0.3 0"/>
<feBlend mode="normal" in2="shape" result="effect1_innerShadow_1789_273"/>
<feColorMatrix in="SourceAlpha" type="matrix" values="0 0 0 0 0 0 0 0 0 0 0 0 0 0 0 0 0 0 127 0" result="hardAlpha"/>
<feOffset dy="2"/>
<feGaussianBlur stdDeviation="0.5"/>
<feComposite in2="hardAlpha" operator="arithmetic" k2="-1" k3="1"/>
<feColorMatrix type="matrix" values="0 0 0 0 1 0 0 0 0 1 0 0 0 0 1 0 0 0 0.3 0"/>
<feBlend mode="normal" in2="effect1_innerShadow_1789_273" result="effect2_innerShadow_1789_273"/>
</filter>
<filter id="filter3_dd_1789_273" x="141.279" y="25.4778" width="30.6929" height="27.9075" filterUnits="userSpaceOnUse" color-interpolation-filters="sRGB">
<feFlood flood-opacity="0" result="BackgroundImageFix"/>
<feColorMatrix in="SourceAlpha" type="matrix" values="0 0 0 0 0 0 0 0 0 0 0 0 0 0 0 0 0 0 127 0" result="hardAlpha"/>
<feOffset dx="4" dy="6"/>
<feGaussianBlur stdDeviation="2"/>
<feColorMatrix type="matrix" values="0 0 0 0 0 0 0 0 0 0 0 0 0 0 0 0 0 0 0.1 0"/>
<feBlend mode="normal" in2="BackgroundImageFix" result="effect1_dropShadow_1789_273"/>
<feColorMatrix in="SourceAlpha" type="matrix" values="0 0 0 0 0 0 0 0 0 0 0 0 0 0 0 0 0 0 127 0" result="hardAlpha"/>
<feOffset/>
<feGaussianBlur stdDeviation="0.5"/>
<feColorMatrix type="matrix" values="0 0 0 0 0 0 0 0 0 0 0 0 0 0 0 0 0 0 0.4 0"/>
<feBlend mode="normal" in2="effect1_dropShadow_1789_273" result="effect2_dropShadow_1789_273"/>
<feBlend mode="normal" in="SourceGraphic" in2="effect2_dropShadow_1789_273" result="shape"/>
</filter>
<filter id="filter4_ii_1789_273" x="71.2031" y="4.10425" width="41.3438" height="53.0417" filterUnits="userSpaceOnUse" color-interpolation-filters="sRGB">
<feFlood flood-opacity="0" result="BackgroundImageFix"/>
<feBlend mode="normal" in="SourceGraphic" in2="BackgroundImageFix" result="shape"/>
<feColorMatrix in="SourceAlpha" type="matrix" values="0 0 0 0 0 0 0 0 0 0 0 0 0 0 0 0 0 0 127 0" result="hardAlpha"/>
<feOffset dy="-2"/>
<feGaussianBlur stdDeviation="0.5"/>
<feComposite in2="hardAlpha" operator="arithmetic" k2="-1" k3="1"/>
<feColorMatrix type="matrix" values="0 0 0 0 0 0 0 0 0 0 0 0 0 0 0 0 0 0 0.3 0"/>
<feBlend mode="normal" in2="shape" result="effect1_innerShadow_1789_273"/>
<feColorMatrix in="SourceAlpha" type="matrix" values="0 0 0 0 0 0 0 0 0 0 0 0 0 0 0 0 0 0 127 0" result="hardAlpha"/>
<feOffset dy="2"/>
<feGaussianBlur stdDeviation="0.5"/>
<feComposite in2="hardAlpha" operator="arithmetic" k2="-1" k3="1"/>
<feColorMatrix type="matrix" values="0 0 0 0 1 0 0 0 0 1 0 0 0 0 1 0 0 0 0.3 0"/>
<feBlend mode="normal" in2="effect1_innerShadow_1789_273" result="effect2_innerShadow_1789_273"/>
</filter>
<filter id="filter5_dd_1789_273" x="82.4214" y="23.2449" width="25.9077" height="30.1406" filterUnits="userSpaceOnUse" color-interpolation-filters="sRGB">
<feFlood flood-opacity="0" result="BackgroundImageFix"/>
<feColorMatrix in="SourceAlpha" type="matrix" values="0 0 0 0 0 0 0 0 0 0 0 0 0 0 0 0 0 0 127 0" result="hardAlpha"/>
<feOffset dx="4" dy="6"/>
<feGaussianBlur stdDeviation="2"/>
<feColorMatrix type="matrix" values="0 0 0 0 0 0 0 0 0 0 0 0 0 0 0 0 0 0 0.1 0"/>
<feBlend mode="normal" in2="BackgroundImageFix" result="effect1_dropShadow_1789_273"/>
<feColorMatrix in="SourceAlpha" type="matrix" values="0 0 0 0 0 0 0 0 0 0 0 0 0 0 0 0 0 0 127 0" result="hardAlpha"/>
<feOffset/>
<feGaussianBlur stdDeviation="0.5"/>
<feColorMatrix type="matrix" values="0 0 0 0 0 0 0 0 0 0 0 0 0 0 0 0 0 0 0.4 0"/>
<feBlend mode="normal" in2="effect1_dropShadow_1789_273" result="effect2_dropShadow_1789_273"/>
<feBlend mode="normal" in="SourceGraphic" in2="effect2_dropShadow_1789_273" result="shape"/>
</filter>
<filter id="filter6_ii_1789_273" x="9.95312" y="4.10425" width="41.3438" height="53.0417" filterUnits="userSpaceOnUse" color-interpolation-filters="sRGB">
<feFlood flood-opacity="0" result="BackgroundImageFix"/>
<feBlend mode="normal" in="SourceGraphic" in2="BackgroundImageFix" result="shape"/>
<feColorMatrix in="SourceAlpha" type="matrix" values="0 0 0 0 0 0 0 0 0 0 0 0 0 0 0 0 0 0 127 0" result="hardAlpha"/>
<feOffset dy="-2"/>
<feGaussianBlur stdDeviation="0.5"/>
<feComposite in2="hardAlpha" operator="arithmetic" k2="-1" k3="1"/>
<feColorMatrix type="matrix" values="0 0 0 0 0 0 0 0 0 0 0 0 0 0 0 0 0 0 0.3 0"/>
<feBlend mode="normal" in2="shape" result="effect1_innerShadow_1789_273"/>
<feColorMatrix in="SourceAlpha" type="matrix" values="0 0 0 0 0 0 0 0 0 0 0 0 0 0 0 0 0 0 127 0" result="hardAlpha"/>
<feOffset dy="2"/>
<feGaussianBlur stdDeviation="0.5"/>
<feComposite in2="hardAlpha" operator="arithmetic" k2="-1" k3="1"/>
<feColorMatrix type="matrix" values="0 0 0 0 1 0 0 0 0 1 0 0 0 0 1 0 0 0 0.3 0"/>
<feBlend mode="normal" in2="effect1_innerShadow_1789_273" result="effect2_innerShadow_1789_273"/>
</filter>
<linearGradient id="paint0_linear_1789_273" x1="223.483" y1="16.4774" x2="237.639" y2="25.6404" gradientUnits="userSpaceOnUse">
<stop stop-opacity="0.2"/>
<stop offset="1" stop-opacity="0"/>
</linearGradient>
<linearGradient id="paint1_linear_1789_273" x1="164.825" y1="14.0763" x2="176.389" y2="25.6404" gradientUnits="userSpaceOnUse">
<stop stop-opacity="0.2"/>
<stop offset="1" stop-opacity="0"/>
</linearGradient>
<linearGradient id="paint2_linear_1789_273" x1="103.575" y1="14.0763" x2="115.139" y2="25.6404" gradientUnits="userSpaceOnUse">
<stop stop-opacity="0.2"/>
<stop offset="1" stop-opacity="0"/>
</linearGradient>
<linearGradient id="paint3_linear_1789_273" x1="42.3249" y1="14.0763" x2="53.889" y2="25.6404" gradientUnits="userSpaceOnUse">
<stop stop-opacity="0.2"/>
<stop offset="1" stop-opacity="0"/>
</linearGradient>
</defs>
</svg>
