<svg width="19" height="19" viewBox="0 0 19 19" fill="none" xmlns="http://www.w3.org/2000/svg">
<path d="M9.5468 11.6359C10.0614 11.6359 10.5549 11.4315 10.9188 11.0676C11.2826 10.7038 11.4871 10.2103 11.4871 9.69566C11.4871 9.63884 11.4845 9.58254 11.4796 9.52693L9.37806 11.6285C9.43367 11.6333 9.4898 11.6359 9.5468 11.6359ZM15.9691 3.694L15.229 2.95462C15.203 2.92865 15.1678 2.91406 15.131 2.91406C15.0943 2.91406 15.0591 2.92865 15.0331 2.95462L13.1392 4.84898C12.0945 4.31506 10.9201 4.0481 9.61609 4.0481C6.28646 4.0481 3.80222 5.78221 2.16339 9.25044C2.09752 9.38993 2.06335 9.54227 2.06335 9.69653C2.06335 9.85079 2.09752 10.0031 2.16339 10.1426C2.81823 11.5219 3.60675 12.6275 4.52896 13.4593L2.69627 15.2913C2.6703 15.3172 2.65571 15.3525 2.65571 15.3892C2.65571 15.426 2.6703 15.4612 2.69627 15.4872L3.43582 16.2267C3.46181 16.2527 3.49705 16.2673 3.53379 16.2673C3.57053 16.2673 3.60577 16.2527 3.63176 16.2267L15.9691 3.89011C15.982 3.87724 15.9922 3.86195 15.9992 3.84513C16.0061 3.8283 16.0097 3.81027 16.0097 3.79206C16.0097 3.77384 16.0061 3.75581 15.9992 3.73898C15.9922 3.72216 15.982 3.70687 15.9691 3.694ZM6.49781 9.69566C6.49776 9.16903 6.63412 8.65136 6.8936 8.19309C7.15308 7.73482 7.52684 7.35157 7.97846 7.08068C8.43008 6.80979 8.94417 6.6605 9.47064 6.64735C9.99711 6.63419 10.518 6.75762 10.9826 7.00562L10.1403 7.8479C9.80063 7.73914 9.43754 7.72604 9.0909 7.81004C8.74426 7.89405 8.42746 8.07191 8.17525 8.32412C7.92305 8.57633 7.74518 8.89313 7.66118 9.23977C7.57717 9.58641 7.59027 9.94949 7.69904 10.2892L6.85676 11.1315C6.62039 10.6898 6.49707 10.1966 6.49781 9.69566V9.69566Z" fill="#232859" fill-opacity="0.24"/>
<path d="M17.0691 9.2491C16.4593 7.96482 15.7334 6.9176 14.8916 6.10742L12.3946 8.60465C12.6051 9.15488 12.6517 9.75429 12.5289 10.3305C12.4061 10.9066 12.1191 11.4349 11.7025 11.8515C11.2859 12.2681 10.7576 12.5551 10.1815 12.6779C9.60529 12.8007 9.00589 12.7541 8.45566 12.5436L6.33765 14.6616C7.32025 15.1163 8.41315 15.3436 9.61635 15.3436C12.946 15.3436 15.4302 13.6095 17.0691 10.1413C17.1349 10.0018 17.1691 9.84944 17.1691 9.69518C17.1691 9.54092 17.1349 9.38858 17.0691 9.2491Z" fill="#232859" fill-opacity="0.24"/>
</svg>
