<svg width="16" height="16" viewBox="0 0 16 16" fill="none" xmlns="http://www.w3.org/2000/svg">
<g clip-path="url(#clip0_311_234)">
<path d="M3.51066 6.51C3.82258 5.5663 4.42457 4.74521 5.23074 4.16387C6.03691 3.58252 7.00608 3.27062 7.99999 3.27267C9.12666 3.27267 10.1453 3.67267 10.9453 4.32733L13.2733 2C11.8547 0.763333 10.0367 0 7.99999 0C4.84666 0 2.13199 1.79867 0.82666 4.43333L3.51066 6.51Z" fill="#EA4335"/>
<path d="M10.6934 12.0084C9.96671 12.4771 9.04404 12.7271 8.00004 12.7271C7.01009 12.7291 6.04458 12.4197 5.2402 11.8426C4.43582 11.2656 3.83334 10.4501 3.51804 9.51172L0.824707 11.5564C1.48554 12.8939 2.50822 14.0193 3.77659 14.8048C5.04496 15.5902 6.50818 16.0042 8.00004 15.9997C9.95537 15.9997 11.8234 15.3044 13.2227 13.9997L10.694 12.0084H10.6934Z" fill="#34A853"/>
<path d="M13.2225 13.9996C14.6859 12.6343 15.6359 10.6023 15.6359 7.99959C15.6359 7.52626 15.5632 7.01759 15.4545 6.54492H7.99988V9.63626H12.2905C12.0792 10.6756 11.5105 11.4803 10.6939 12.0083L13.2225 13.9996Z" fill="#4A90E2"/>
<path d="M3.51808 9.51226C3.35498 9.02487 3.27212 8.51422 3.27274 8.00026C3.27274 7.47893 3.35608 6.97826 3.51074 6.51026L0.826744 4.43359C0.277663 5.54205 -0.00538663 6.76327 7.76364e-05 8.00026C7.76364e-05 9.28026 0.296744 10.4869 0.824744 11.5569L3.51808 9.51226Z" fill="#FBBC05"/>
</g>
<defs>
<clipPath id="clip0_311_234">
<rect width="16" height="16" fill="white"/>
</clipPath>
</defs>
</svg>
