<svg width="56" height="51" viewBox="0 0 56 51" fill="none" xmlns="http://www.w3.org/2000/svg">
<path d="M24.5 26.833C24.5 24.9033 22.9297 23.333 21 23.333C19.0703 23.333 17.5 24.9033 17.5 26.833C17.5 28.7627 19.0703 30.333 21 30.333C22.9297 30.333 24.5 28.7627 24.5 26.833ZM21 27.9997C20.3572 27.9997 19.8333 27.477 19.8333 26.833C19.8333 26.189 20.3572 25.6663 21 25.6663C21.6428 25.6663 22.1667 26.1902 22.1667 26.833C22.1667 27.4758 21.6428 27.9997 21 27.9997Z" fill="#7A89FE"/>
<path d="M35 23.333C33.0703 23.333 31.5 24.9033 31.5 26.833C31.5 28.7627 33.0703 30.333 35 30.333C36.9297 30.333 38.5 28.7627 38.5 26.833C38.5 24.9033 36.9297 23.333 35 23.333ZM35 27.9997C34.3572 27.9997 33.8333 27.477 33.8333 26.833C33.8333 26.189 34.3572 25.6663 35 25.6663C35.6428 25.6663 36.1667 26.1902 36.1667 26.833C36.1667 27.4758 35.6428 27.9997 35 27.9997Z" fill="#7A89FE"/>
<path d="M33.3002 37.2282C30.0161 38.9163 25.9841 38.9163 22.6999 37.2282C22.1259 36.933 21.4236 37.1593 21.1284 37.7333C20.8332 38.3073 21.0596 39.0097 21.6336 39.3048C23.5807 40.3047 25.7822 40.8343 28.0001 40.8343C30.2179 40.8343 32.4194 40.3058 34.3666 39.3048C34.9394 39.0097 35.1657 38.3073 34.8717 37.7333C34.5777 37.1593 33.8742 36.933 33.3002 37.2282Z" fill="#7A89FE"/>
<path d="M52.5 23.3333H49V19.8333C49 16.6168 46.3832 14 43.1667 14H29.1667V9.16767C31.1733 8.64617 32.6667 6.83433 32.6667 4.66667C32.6667 2.093 30.5737 0 28 0C25.4263 0 23.3333 2.093 23.3333 4.66667C23.3333 6.83433 24.8267 8.64617 26.8333 9.16767V14H12.8333C9.61683 14 7 16.6168 7 19.8333V23.3333H3.5C1.57033 23.3333 0 24.9037 0 26.8333V37.3333C0 39.263 1.57033 40.8333 3.5 40.8333H7V44.3333C7 47.5498 9.61683 50.1667 12.8333 50.1667H43.1667C46.3832 50.1667 49 47.5498 49 44.3333V40.8333H52.5C54.4297 40.8333 56 39.263 56 37.3333V26.8333C56 24.9037 54.4297 23.3333 52.5 23.3333ZM25.6667 4.66667C25.6667 3.37983 26.7132 2.33333 28 2.33333C29.2868 2.33333 30.3333 3.37983 30.3333 4.66667C30.3333 5.9535 29.2868 7 28 7C26.7132 7 25.6667 5.9535 25.6667 4.66667ZM3.5 38.5C2.85717 38.5 2.33333 37.9773 2.33333 37.3333V26.8333C2.33333 26.1905 2.85717 25.6667 3.5 25.6667H7V38.5H3.5ZM46.6667 44.3333C46.6667 46.263 45.0963 47.8333 43.1667 47.8333H12.8333C10.9037 47.8333 9.33333 46.263 9.33333 44.3333V19.8333C9.33333 17.9037 10.9037 16.3333 12.8333 16.3333H43.1667C45.0963 16.3333 46.6667 17.9037 46.6667 19.8333V44.3333ZM53.6667 37.3333C53.6667 37.9773 53.1428 38.5 52.5 38.5H49V25.6667H52.5C53.1428 25.6667 53.6667 26.1905 53.6667 26.8333V37.3333Z" fill="#7A89FE"/>
</svg>
