<svg width="83" height="83" viewBox="0 0 83 83" fill="none" xmlns="http://www.w3.org/2000/svg">
<g filter="url(#filter0_ii_1133_247)">
<circle cx="41.5" cy="41.5" r="41.5" fill="white"/>
</g>
<g clip-path="url(#clip0_1133_247)">
<path d="M27.6888 46.5881L24.8096 46.6446C23.5414 46.6651 22.2817 46.4344 21.1041 45.9658C19.9264 45.4972 18.8542 44.8001 17.9501 43.9153C17.046 43.0304 16.3279 41.9754 15.8378 40.8118C15.3477 39.6481 15.0954 38.3991 15.0955 37.1374V36.8087C15.08 34.6767 15.8167 32.6069 17.1773 30.9595L17.3018 30.8093C20.8052 26.5815 25.5851 23.5893 30.9328 22.2764" stroke="#4085F9" stroke-width="2" stroke-linecap="round" stroke-linejoin="round"/>
<path d="M58.2097 56.5149C57.4226 58.367 56.0158 59.8914 54.2278 60.8298C52.4398 61.7681 50.3806 62.0626 48.3993 61.6633C46.418 61.2641 44.6364 60.1957 43.3565 58.6392C42.0767 57.0827 41.3773 55.1338 41.377 53.123" stroke="#4085F9" stroke-width="2" stroke-linecap="round" stroke-linejoin="round"/>
<path d="M33.6335 42.2307C32.9247 42.2307 32.2229 42.0918 31.5681 41.822C30.9133 41.5523 30.3183 41.1568 29.8171 40.6583C29.3159 40.1598 28.9184 39.568 28.6472 38.9167C28.3759 38.2654 28.2363 37.5673 28.2363 36.8623" stroke="#4085F9" stroke-width="2" stroke-linecap="round" stroke-linejoin="round"/>
<path d="M35.9019 53.123L36.3643 54.043C38.2788 57.8531 39.5157 61.964 40.0204 66.1938" stroke="#4085F9" stroke-width="2" stroke-linecap="round" stroke-linejoin="round"/>
<path d="M46.5747 66.1934C46.3496 64.2594 45.971 62.3462 45.4424 60.4717" stroke="#4085F9" stroke-width="2" stroke-linecap="round" stroke-linejoin="round"/>
<path d="M32.5381 25.8921C32.9243 24.6314 33.7075 23.5274 34.7722 22.743C35.8369 21.9586 37.1269 21.5352 38.4519 21.5352H39.1866" stroke="#4085F9" stroke-width="2" stroke-linecap="round" stroke-linejoin="round"/>
<path d="M44.3846 42.2309H33.9814C30.9575 42.2309 27.9585 44.5286 27.9585 47.5364C27.9585 48.9808 28.5354 50.366 29.5622 51.3874C30.589 52.4087 31.9817 52.9825 33.4339 52.9825H43.2896C43.2896 52.9825 45.1538 54.2187 46.8964 55.3741C48.8292 56.6558 51.1001 57.3396 53.423 57.3394C56.5727 57.3498 59.6004 56.1289 61.8535 53.9398C64.1067 51.7506 65.4048 48.7685 65.4682 45.6363L65.4686 43.3798C65.4688 41.49 65.1454 39.6141 64.5123 37.8323C64.3342 37.3308 64.1326 36.8395 63.9075 36.3584" stroke="#4085F9" stroke-width="2" stroke-linecap="round" stroke-linejoin="round"/>
<path d="M32.4373 29.8883C32.8556 29.4539 32.8407 28.7644 32.404 28.3483C31.9672 27.9322 31.274 27.947 30.8557 28.3814C30.4373 28.8158 30.4522 29.5053 30.8889 29.9214C31.3257 30.3376 32.0189 30.3228 32.4373 29.8883Z" fill="#4085F9"/>
<path d="M28.2362 34.6062C28.841 34.6062 29.3313 34.1185 29.3313 33.517C29.3313 32.9154 28.841 32.4277 28.2362 32.4277C27.6314 32.4277 27.1411 32.9154 27.1411 33.517C27.1411 34.1185 27.6314 34.6062 28.2362 34.6062Z" fill="#4085F9"/>
<path d="M38.424 45.5567C38.0048 44.5705 37.3027 43.729 36.4054 43.1374C35.5081 42.5458 34.4554 42.2304 33.3789 42.2305" stroke="#4085F9" stroke-width="2" stroke-linecap="round" stroke-linejoin="round"/>
<path d="M39.9778 49.4948C40.3961 49.0604 40.3812 48.3709 39.9445 47.9547C39.5078 47.5386 38.8146 47.5534 38.3962 47.9878C37.9778 48.4223 37.9927 49.1118 38.4295 49.5279C38.8662 49.944 39.5594 49.9292 39.9778 49.4948Z" fill="#4085F9"/>
<path d="M47.9471 43.3201C48.5519 43.3201 49.0422 42.8324 49.0422 42.2308C49.0422 41.6293 48.5519 41.1416 47.9471 41.1416C47.3423 41.1416 46.8521 41.6293 46.8521 42.2308C46.8521 42.8324 47.3423 43.3201 47.9471 43.3201Z" fill="#4085F9"/>
<path d="M61.0884 41.1416C62.2501 41.1416 63.3643 41.6006 64.1857 42.4177C65.0072 43.2348 65.4687 44.343 65.4687 45.4985" stroke="#4085F9" stroke-width="2" stroke-linecap="round" stroke-linejoin="round"/>
<path d="M61.0887 19.3574H47.9478V32.4282H61.0887V19.3574Z" stroke="#17B294" stroke-width="2" stroke-miterlimit="10"/>
<path d="M51.2329 28.0713H53.4231" stroke="#17B294" stroke-width="2" stroke-miterlimit="10"/>
<path d="M55.6133 28.0713H57.8034" stroke="#17B294" stroke-width="2" stroke-miterlimit="10"/>
<path d="M51.2329 23.7139H53.4231" stroke="#17B294" stroke-width="2" stroke-miterlimit="10"/>
<path d="M55.6133 23.7139H57.8034" stroke="#17B294" stroke-width="2" stroke-miterlimit="10"/>
<path d="M54.5181 32.4277V37.8739" stroke="#17B294" stroke-width="2" stroke-miterlimit="10"/>
<path d="M58.8984 32.4277V37.8739" stroke="#17B294" stroke-width="2" stroke-miterlimit="10"/>
<path d="M47.9475 21.5352H42.4722" stroke="#17B294" stroke-width="2" stroke-miterlimit="10"/>
<path d="M47.9475 25.8926H42.4722" stroke="#17B294" stroke-width="2" stroke-miterlimit="10"/>
<path d="M47.9475 30.249H42.4722" stroke="#17B294" stroke-width="2" stroke-miterlimit="10"/>
<path d="M50.1377 32.4277V37.8739" stroke="#17B294" stroke-width="2" stroke-miterlimit="10"/>
<path d="M61.0884 21.5352H66.5638" stroke="#17B294" stroke-width="2" stroke-miterlimit="10"/>
<path d="M61.0884 25.8926H66.5638" stroke="#17B294" stroke-width="2" stroke-miterlimit="10"/>
<path d="M61.0884 30.249H66.5638" stroke="#17B294" stroke-width="2" stroke-miterlimit="10"/>
<path d="M58.8985 19.357L58.8984 15" stroke="#17B294" stroke-width="2" stroke-miterlimit="10"/>
<path d="M54.5181 19.357L54.5181 15" stroke="#17B294" stroke-width="2" stroke-miterlimit="10"/>
<path d="M50.1378 19.357L50.1377 15" stroke="#17B294" stroke-width="2" stroke-miterlimit="10"/>
</g>
<defs>
<filter id="filter0_ii_1133_247" x="0" y="-1" width="83" height="85" filterUnits="userSpaceOnUse" color-interpolation-filters="sRGB">
<feFlood flood-opacity="0" result="BackgroundImageFix"/>
<feBlend mode="normal" in="SourceGraphic" in2="BackgroundImageFix" result="shape"/>
<feColorMatrix in="SourceAlpha" type="matrix" values="0 0 0 0 0 0 0 0 0 0 0 0 0 0 0 0 0 0 127 0" result="hardAlpha"/>
<feOffset dy="2"/>
<feGaussianBlur stdDeviation="0.5"/>
<feComposite in2="hardAlpha" operator="arithmetic" k2="-1" k3="1"/>
<feColorMatrix type="matrix" values="0 0 0 0 1 0 0 0 0 1 0 0 0 0 1 0 0 0 0.3 0"/>
<feBlend mode="normal" in2="shape" result="effect1_innerShadow_1133_247"/>
<feColorMatrix in="SourceAlpha" type="matrix" values="0 0 0 0 0 0 0 0 0 0 0 0 0 0 0 0 0 0 127 0" result="hardAlpha"/>
<feOffset dy="-2"/>
<feGaussianBlur stdDeviation="0.5"/>
<feComposite in2="hardAlpha" operator="arithmetic" k2="-1" k3="1"/>
<feColorMatrix type="matrix" values="0 0 0 0 0 0 0 0 0 0 0 0 0 0 0 0 0 0 0.25 0"/>
<feBlend mode="normal" in2="effect1_innerShadow_1133_247" result="effect2_innerShadow_1133_247"/>
</filter>
<clipPath id="clip0_1133_247">
<rect width="52.5636" height="52.283" fill="white" transform="translate(14 15)"/>
</clipPath>
</defs>
</svg>
