<svg width="118" height="97" viewBox="0 0 118 97" fill="none" xmlns="http://www.w3.org/2000/svg">
<g filter="url(#filter0_ii_1079_275)">
<path d="M19.175 47.908C19.175 25.9133 37.0053 8.08301 59 8.08301L-nan -nanL-nan -nanL59 8.08301C80.9948 8.08301 98.825 25.9133 98.825 47.908V49.0913C98.825 71.0861 80.9948 88.9163 59 88.9163L-nan -nanL-nan -nanL59 88.9163C37.0053 88.9163 19.175 71.0861 19.175 49.0913V47.908Z" fill="white"/>
</g>
<g clip-path="url(#clip0_1079_275)">
<path d="M44.7977 50.5881L41.9185 50.6446C40.6503 50.6651 39.3906 50.4344 38.2129 49.9658C37.0353 49.4972 35.9631 48.8001 35.059 47.9153C34.1549 47.0304 33.4368 45.9754 32.9467 44.8118C32.4566 43.6481 32.2043 42.3991 32.2043 41.1374V40.8087C32.1889 38.6767 32.9256 36.6069 34.2862 34.9595L34.4107 34.8093C37.9141 30.5815 42.694 27.5893 48.0417 26.2764" stroke="#4085F9" stroke-width="2" stroke-linecap="round" stroke-linejoin="round"/>
<path d="M75.3188 60.5149C74.5317 62.367 73.1249 63.8914 71.3369 64.8298C69.5489 65.7681 67.4898 66.0626 65.5084 65.6633C63.5271 65.2641 61.7455 64.1957 60.4656 62.6392C59.1858 61.0827 58.4864 59.1338 58.4861 57.123" stroke="#4085F9" stroke-width="2" stroke-linecap="round" stroke-linejoin="round"/>
<path d="M50.7424 46.2307C50.0336 46.2307 49.3318 46.0918 48.677 45.822C48.0222 45.5523 47.4272 45.1568 46.926 44.6583C46.4248 44.1598 46.0273 43.568 45.756 42.9167C45.4848 42.2654 45.3452 41.5673 45.3452 40.8623" stroke="#4085F9" stroke-width="2" stroke-linecap="round" stroke-linejoin="round"/>
<path d="M53.0107 57.123L53.4732 58.043C55.3877 61.8531 56.6246 65.964 57.1293 70.1938" stroke="#4085F9" stroke-width="2" stroke-linecap="round" stroke-linejoin="round"/>
<path d="M63.6838 70.1934C63.4587 68.2594 63.0801 66.3462 62.5515 64.4717" stroke="#4085F9" stroke-width="2" stroke-linecap="round" stroke-linejoin="round"/>
<path d="M49.6475 29.8921C50.0337 28.6314 50.8168 27.5274 51.8816 26.743C52.9463 25.9586 54.2363 25.5352 55.5613 25.5352H56.2959" stroke="#4085F9" stroke-width="2" stroke-linecap="round" stroke-linejoin="round"/>
<path d="M61.4938 46.2309H51.0905C48.0666 46.2309 45.0676 48.5286 45.0676 51.5364C45.0676 52.9808 45.6445 54.366 46.6713 55.3874C47.6982 56.4087 49.0908 56.9825 50.543 56.9825H60.3987C60.3987 56.9825 62.2629 58.2187 64.0055 59.3741C65.9383 60.6558 68.2093 61.3396 70.5322 61.3394C73.6819 61.3498 76.7095 60.1289 78.9627 57.9398C81.2158 55.7506 82.514 52.7685 82.5774 49.6363L82.5777 47.3798C82.5779 45.49 82.2545 43.6141 81.6215 41.8323C81.4433 41.3308 81.2417 40.8395 81.0166 40.3584" stroke="#4085F9" stroke-width="2" stroke-linecap="round" stroke-linejoin="round"/>
<path d="M49.5466 33.8883C49.965 33.4539 49.9501 32.7644 49.5134 32.3483C49.0766 31.9322 48.3834 31.947 47.965 32.3814C47.5467 32.8158 47.5616 33.5053 47.9983 33.9214C48.4351 34.3376 49.1283 34.3228 49.5466 33.8883Z" fill="#4085F9"/>
<path d="M45.3451 38.6062C45.9499 38.6062 46.4402 38.1185 46.4402 37.517C46.4402 36.9154 45.9499 36.4277 45.3451 36.4277C44.7403 36.4277 44.25 36.9154 44.25 37.517C44.25 38.1185 44.7403 38.6062 45.3451 38.6062Z" fill="#4085F9"/>
<path d="M55.5334 49.5567C55.1142 48.5705 54.412 47.729 53.5148 47.1374C52.6175 46.5458 51.5648 46.2304 50.4883 46.2305" stroke="#4085F9" stroke-width="2" stroke-linecap="round" stroke-linejoin="round"/>
<path d="M57.0867 53.4948C57.505 53.0604 57.4901 52.3709 57.0534 51.9547C56.6166 51.5386 55.9234 51.5534 55.5051 51.9878C55.0867 52.4223 55.1016 53.1118 55.5384 53.5279C55.9751 53.944 56.6683 53.9292 57.0867 53.4948Z" fill="#4085F9"/>
<path d="M65.0565 47.3201C65.6613 47.3201 66.1516 46.8324 66.1516 46.2308C66.1516 45.6293 65.6613 45.1416 65.0565 45.1416C64.4517 45.1416 63.9614 45.6293 63.9614 46.2308C63.9614 46.8324 64.4517 47.3201 65.0565 47.3201Z" fill="#4085F9"/>
<path d="M78.1973 45.1416C79.359 45.1416 80.4731 45.6006 81.2946 46.4177C82.1161 47.2348 82.5776 48.343 82.5776 49.4985" stroke="#4085F9" stroke-width="2" stroke-linecap="round" stroke-linejoin="round"/>
<path d="M78.1973 23.3574H65.0564V36.4282H78.1973V23.3574Z" stroke="#17B294" stroke-width="2" stroke-miterlimit="10"/>
<path d="M68.3416 32.0713H70.5317" stroke="#17B294" stroke-width="2" stroke-miterlimit="10"/>
<path d="M72.7219 32.0713H74.9121" stroke="#17B294" stroke-width="2" stroke-miterlimit="10"/>
<path d="M68.3416 27.7139H70.5317" stroke="#17B294" stroke-width="2" stroke-miterlimit="10"/>
<path d="M72.7219 27.7139H74.9121" stroke="#17B294" stroke-width="2" stroke-miterlimit="10"/>
<path d="M71.627 36.4277V41.8739" stroke="#17B294" stroke-width="2" stroke-miterlimit="10"/>
<path d="M76.0071 36.4277V41.8739" stroke="#17B294" stroke-width="2" stroke-miterlimit="10"/>
<path d="M65.0564 25.5352H59.5811" stroke="#17B294" stroke-width="2" stroke-miterlimit="10"/>
<path d="M65.0564 29.8926H59.5811" stroke="#17B294" stroke-width="2" stroke-miterlimit="10"/>
<path d="M65.0564 34.249H59.5811" stroke="#17B294" stroke-width="2" stroke-miterlimit="10"/>
<path d="M67.2466 36.4277V41.8739" stroke="#17B294" stroke-width="2" stroke-miterlimit="10"/>
<path d="M78.1973 25.5352H83.6726" stroke="#17B294" stroke-width="2" stroke-miterlimit="10"/>
<path d="M78.1973 29.8926H83.6726" stroke="#17B294" stroke-width="2" stroke-miterlimit="10"/>
<path d="M78.1973 34.249H83.6726" stroke="#17B294" stroke-width="2" stroke-miterlimit="10"/>
<path d="M76.0071 23.357L76.0071 19" stroke="#17B294" stroke-width="2" stroke-miterlimit="10"/>
<path d="M71.6268 23.357L71.6267 19" stroke="#17B294" stroke-width="2" stroke-miterlimit="10"/>
<path d="M67.2466 23.357L67.2466 19" stroke="#17B294" stroke-width="2" stroke-miterlimit="10"/>
</g>
<defs>
<filter id="filter0_ii_1079_275" x="19.175" y="7.08301" width="79.6499" height="82.833" filterUnits="userSpaceOnUse" color-interpolation-filters="sRGB">
<feFlood flood-opacity="0" result="BackgroundImageFix"/>
<feBlend mode="normal" in="SourceGraphic" in2="BackgroundImageFix" result="shape"/>
<feColorMatrix in="SourceAlpha" type="matrix" values="0 0 0 0 0 0 0 0 0 0 0 0 0 0 0 0 0 0 127 0" result="hardAlpha"/>
<feOffset dy="-2"/>
<feGaussianBlur stdDeviation="0.5"/>
<feComposite in2="hardAlpha" operator="arithmetic" k2="-1" k3="1"/>
<feColorMatrix type="matrix" values="0 0 0 0 0 0 0 0 0 0 0 0 0 0 0 0 0 0 0.3 0"/>
<feBlend mode="normal" in2="shape" result="effect1_innerShadow_1079_275"/>
<feColorMatrix in="SourceAlpha" type="matrix" values="0 0 0 0 0 0 0 0 0 0 0 0 0 0 0 0 0 0 127 0" result="hardAlpha"/>
<feOffset dy="2"/>
<feGaussianBlur stdDeviation="0.5"/>
<feComposite in2="hardAlpha" operator="arithmetic" k2="-1" k3="1"/>
<feColorMatrix type="matrix" values="0 0 0 0 1 0 0 0 0 1 0 0 0 0 1 0 0 0 0.3 0"/>
<feBlend mode="normal" in2="effect1_innerShadow_1079_275" result="effect2_innerShadow_1079_275"/>
</filter>
<clipPath id="clip0_1079_275">
<rect width="52.5636" height="52.283" fill="white" transform="translate(31.1091 19)"/>
</clipPath>
</defs>
</svg>
