<svg width="290" height="108" viewBox="0 0 290 108" fill="none" xmlns="http://www.w3.org/2000/svg">
<path d="M0 55.2106C0 51.199 0 47.2027 0 43.1911C0 39.7194 2.515 37.1273 5.95577 37.0964C10.5692 37.0656 15.198 37.081 19.8114 37.081C24.8723 37.081 29.9332 37.0656 34.994 37.0964C38.4811 37.1119 40.9806 39.6732 40.9806 43.1602C40.9806 48.5759 40.9806 54.0071 40.9806 59.4228C40.9806 62.663 38.3885 65.2706 35.1483 65.2706C27.3873 65.2706 19.6108 65.2706 11.8498 65.2552C10.8315 65.2552 9.96743 65.5021 9.1651 66.1501C7.62215 67.369 6.04835 68.5417 4.47454 69.6989C3.37905 70.5012 2.36071 70.5012 1.21893 69.776C0.308593 69.1897 0.0154257 68.2948 0.0154257 67.2764C-3.76719e-06 63.2648 0 59.2377 0 55.2106ZM2.74645 67.5696C4.41283 66.3198 6.01749 65.178 7.54501 63.9437C8.77936 62.9408 10.1217 62.555 11.6955 62.555C18.9474 62.6013 26.2146 62.5859 33.4665 62.5705C33.8677 62.5705 34.2534 62.4933 34.6546 62.5087C36.753 62.6322 38.1725 61.367 38.2188 59.2686C38.2496 57.741 38.2342 56.2135 38.2342 54.686C38.2342 50.8441 38.2342 46.9867 38.2188 43.1448C38.2188 42.2036 37.9256 41.3704 37.2313 40.7069C36.3672 39.8583 35.2563 39.7812 34.1454 39.7812C25.0729 39.7657 16.0003 39.7812 6.92783 39.7812C6.51123 39.7812 6.09464 39.812 5.67805 39.8737C3.96538 40.1206 3.0859 41.0001 2.80817 42.6819C2.74645 43.0676 2.74645 43.4688 2.74645 43.87C2.74645 51.307 2.74645 58.744 2.74645 66.181C2.74645 66.613 2.74645 67.0296 2.74645 67.5696Z" fill="white"/>
<path d="M27.7507 30.7773C22.551 30.7773 17.3513 30.7619 12.1515 30.7927C11.2103 30.7927 10.6857 30.191 10.5777 29.5121C10.4697 28.8949 11.056 28.216 11.8584 28.0926C12.4601 28 13.0927 28 13.6945 28C15.0368 28.0154 16.3792 28.0771 17.7216 28.0771C21.1778 28.0771 24.6185 28.0463 28.0747 28.0463C33.475 28.0463 38.8599 28.0309 44.2602 28.108C47.5004 28.1543 50 30.7927 50 34.0175C50 39.3715 50 44.7255 50 50.0795C50 50.8356 49.5834 51.391 48.9662 51.4991C48.241 51.6225 47.6547 51.3448 47.4233 50.6967C47.3307 50.4344 47.2844 50.1413 47.2844 49.8635C47.269 44.8027 47.2381 39.7264 47.269 34.6655C47.2844 31.9037 45.834 30.8082 43.3499 30.7927C40.0788 30.7773 36.7924 30.7927 33.5213 30.7927C31.5926 30.7773 29.664 30.7773 27.7507 30.7773Z" fill="white"/>
<path d="M14.1951 52.6959C13.4236 52.6804 12.8064 52.0478 12.8373 51.2918C12.8681 50.5512 13.4699 49.9648 14.2105 49.9648C14.982 49.9648 15.63 50.5975 15.6146 51.3381C15.6146 52.1095 14.9665 52.7113 14.1951 52.6959Z" fill="white"/>
<path d="M20.5829 52.6939C19.8268 52.6939 19.1942 52.0304 19.2251 51.2898C19.2559 50.5492 19.8577 50.04 20.6137 49.9783C21.3698 49.9166 21.987 50.6418 22.0024 51.3361C22.0024 52.0921 21.3544 52.7093 20.5829 52.6939Z" fill="white"/>
<path d="M28.1125 51.3075C28.1125 52.1407 27.5878 52.7116 26.8164 52.727C26.0295 52.7424 25.474 52.1716 25.474 51.3538C25.474 50.536 26.0449 49.9497 26.8164 49.9651C27.557 49.9651 28.097 50.536 28.1125 51.3075Z" fill="white"/>
<g filter="url(#filter0_d_200_1856)">
<path d="M90 32.8994C91.72 32.9135 93.426 32.9417 95.146 32.9135C95.7381 32.8994 95.9355 33.0263 95.9355 33.6748C95.8932 37.6648 95.9355 41.6547 95.8932 45.6587C95.8791 46.3636 96.0906 46.4905 96.7532 46.4764C100.348 46.4482 103.944 46.4482 107.539 46.4764C108.145 46.4764 108.356 46.3636 108.356 45.701C108.314 41.6829 108.356 37.6648 108.328 33.6466C108.328 33.0545 108.497 32.9135 109.075 32.9276C110.598 32.9699 112.135 32.9558 113.658 32.9276C114.08 32.9276 114.278 32.984 114.278 33.4916C114.264 43.8964 114.264 54.3011 114.278 64.7059C114.278 65.143 114.151 65.2699 113.714 65.2558C112.135 65.2276 110.57 65.2276 108.991 65.2558C108.455 65.2699 108.328 65.1148 108.342 64.5932C108.371 60.6878 108.342 56.7966 108.371 52.8913C108.371 52.3273 108.258 52.1441 107.651 52.1441C103.958 52.1723 100.278 52.1723 96.5841 52.1441C96.0624 52.1441 95.9214 52.2568 95.9214 52.7926C95.9496 56.712 95.9214 60.6314 95.9496 64.565C95.9496 65.0725 95.8509 65.2699 95.3011 65.2417C93.5388 65.1712 91.7764 65.3122 90.0282 65.1712C90 54.428 90 43.6567 90 32.8994Z" fill="#34475B"/>
<path d="M259.184 60.2514C258.648 61.6753 258.366 63.1698 257.929 64.6219C257.844 64.918 257.746 65.1295 257.393 65.1577C255.335 65.3833 253.305 65.3128 251.387 64.4528C248.807 63.2967 247.425 61.2242 247.355 58.4326C247.242 54.5414 247.313 50.6361 247.299 46.7449C247.299 43.9956 247.313 41.2464 247.284 38.4972C247.284 38.0601 247.397 37.8345 247.806 37.6513C249.329 37.0027 250.851 36.326 252.36 35.6069C252.952 35.325 252.98 35.5365 252.98 36.0581C252.952 37.7076 253.023 39.3431 252.952 40.9926C252.924 41.754 253.178 41.8667 253.854 41.8385C255.095 41.7821 256.35 41.8385 257.591 41.8103C257.971 41.8103 258.126 41.909 258.126 42.3179C258.098 43.6291 258.098 44.9543 258.126 46.2655C258.14 46.7026 257.943 46.759 257.576 46.759C256.237 46.7449 254.898 46.7731 253.558 46.7449C253.107 46.7308 252.952 46.8436 252.966 47.3229C252.994 50.4246 252.966 53.5263 252.98 56.628C252.994 58.6441 254.024 59.7297 256.026 59.9976C257.083 60.1386 258.14 60.0258 259.184 59.9694C259.184 60.0681 259.184 60.1527 259.184 60.2514Z" fill="#34475B"/>
<path d="M177.454 65.2427C173.633 65.2427 170.588 63.6214 168.121 60.7735C167.867 60.4915 167.923 60.3364 168.163 60.0967C169.319 58.9265 170.461 57.7422 171.575 56.5439C171.829 56.276 171.969 56.2337 172.223 56.5439C172.632 57.0373 173.055 57.5026 173.52 57.9396C175.001 59.3213 176.763 59.7724 178.723 59.4059C180.231 59.1239 181.43 57.8691 181.683 56.4593C181.923 55.0494 181.303 53.8228 179.865 52.9487C178.469 52.1028 176.89 51.708 175.381 51.1018C174.606 50.7916 173.816 50.4814 173.055 50.1149C170.39 48.8178 168.755 46.7453 168.459 43.7564C168.092 40.0907 169.037 36.9045 172.237 34.7897C176.791 31.7725 183.15 32.4493 187.027 36.6366C187.365 37.0031 187.393 37.2146 187.041 37.6094C186.04 38.7232 185.081 39.8793 184.123 41.0495C183.855 41.3737 183.7 41.4301 183.361 41.1058C182.445 40.1894 181.359 39.4845 180.133 39.0192C179.47 38.7655 178.779 38.6527 178.06 38.6809C175.692 38.7796 174.253 40.4714 174.578 42.8259C174.705 43.7141 175.283 44.2921 176.016 44.7151C177.059 45.3213 178.215 45.6315 179.357 46.0122C180.4 46.3505 181.444 46.703 182.459 47.1401C185.49 48.4794 187.267 50.7493 187.774 54.0484C188.507 58.6587 186.435 62.5922 182.247 64.3404C180.725 64.9748 179.118 65.2427 177.454 65.2427Z" fill="#34475B"/>
<path d="M117.746 48.6191C117.746 46.2647 117.76 43.9243 117.732 41.5698C117.732 41.0905 117.831 40.9213 118.338 40.9354C119.79 40.9777 121.257 40.9777 122.709 40.9354C123.273 40.9213 123.357 41.1328 123.357 41.6262C123.343 45.9263 123.343 50.2264 123.357 54.5265C123.357 56.9232 124.584 58.7279 126.642 59.4187C129.899 60.5184 133.071 58.1498 133.1 54.5688C133.128 50.2969 133.114 46.025 133.085 41.739C133.085 41.0764 133.283 40.9213 133.903 40.9495C135.313 40.9918 136.723 40.9777 138.133 40.9495C138.584 40.9354 138.683 41.0905 138.683 41.5134C138.668 46.0532 138.725 50.5788 138.654 55.1186C138.57 60.6312 134.284 64.9313 128.602 65.2978C123.541 65.6221 118.775 61.745 117.901 56.599C117.788 55.894 117.76 55.2032 117.76 54.4983C117.746 52.5245 117.746 50.5647 117.746 48.6191Z" fill="#34475B"/>
<path fill-rule="evenodd" clip-rule="evenodd" d="M229.544 37.1551C229.546 37.3433 229.548 37.5319 229.548 37.7218C229.548 37.8745 229.548 38.0267 229.547 38.1784C229.545 38.7829 229.543 39.3802 229.577 39.9775C229.591 40.4005 229.492 40.5838 229.027 40.6684C227.349 40.9644 225.77 41.5989 224.416 42.6422C223.824 43.0933 223.5 42.9664 222.992 42.5717C218.425 38.9906 213.857 35.4237 209.26 31.8849C208.64 31.4056 208.302 30.9967 208.4 30.0803C208.612 27.9091 207.174 25.9353 205.073 25.2445C203.029 24.5677 200.773 25.3291 199.546 27.1196C198.32 28.896 198.419 31.2505 199.786 32.9564C201.125 34.6201 203.438 35.2122 205.44 34.3522C205.834 34.183 206.088 34.1971 206.441 34.465C211.192 38.187 215.957 41.895 220.723 45.5888C221.061 45.8426 221.117 46.0118 220.892 46.4206C218.439 50.763 218.509 55.0913 221.075 59.3632C221.287 59.7156 221.287 59.913 220.99 60.195C219.877 61.2806 218.763 62.3662 217.705 63.4941C217.127 64.1003 216.606 64.6079 215.675 64.2695C215.534 64.2191 215.357 64.2551 215.185 64.2901C215.117 64.304 215.049 64.3178 214.984 64.3259C212.856 64.6079 211.262 66.6945 211.601 68.767C211.981 71.0932 213.983 72.5877 216.267 72.2211C218.41 71.8828 219.947 69.7257 219.524 67.6109C219.44 67.2443 219.496 67.0187 219.764 66.7508C221.033 65.4961 222.302 64.2413 223.542 62.9583C223.867 62.6199 224.078 62.6058 224.473 62.8737C226.404 64.2272 228.561 64.9744 230.916 65.059C237.669 65.2987 243.168 60.477 243.802 53.7801C244.38 47.6472 240.094 41.9654 233.919 40.6825C233.468 40.5979 233.355 40.4428 233.355 40.0057C233.383 38.5254 233.383 37.045 233.355 35.5647C233.341 35.1135 233.496 34.8597 233.877 34.6201C235.667 33.464 236.33 31.18 235.498 29.2203C234.765 27.472 233.017 26.4287 231.085 26.5697C229.266 26.6966 227.659 28.0078 227.194 29.7419C226.686 31.6029 227.363 33.5486 228.942 34.5637C229.436 34.8738 229.591 35.2122 229.562 35.7479C229.532 36.2208 229.538 36.6864 229.544 37.1551ZM231.071 59.0949C234.511 59.2218 237.429 56.388 237.542 52.8492C237.655 49.5219 234.878 46.5612 231.55 46.4343C228.026 46.3075 225.051 49.0567 224.938 52.525C224.825 56.0355 227.575 58.968 231.071 59.0949Z" fill="#F4795B"/>
<path fill-rule="evenodd" clip-rule="evenodd" d="M197.018 65.2898C197.02 64.3519 197.023 63.4107 197.023 62.4649C197.069 62.4804 197.105 62.4903 197.132 62.4979C197.179 62.511 197.202 62.5176 197.22 62.5354C199.998 65.1577 203.268 65.4961 206.737 64.5092C212.545 62.8456 216.028 57.0933 215.069 50.904C213.913 43.4317 205.2 38.6382 198.376 41.7963C193.738 43.9534 191.567 47.8869 191.454 52.8496C191.349 57.2794 191.367 61.7157 191.385 66.1497C191.393 68.2495 191.402 70.3489 191.397 72.4467C191.397 72.8979 191.538 72.9966 191.961 72.9966C193.399 72.9684 194.823 72.9543 196.261 72.9966C196.854 73.0248 197.051 72.8979 197.037 72.2493C197.007 69.9363 197.012 67.6233 197.018 65.2898ZM203.593 46.4915C200.124 46.4633 197.291 49.2689 197.234 52.7654C197.178 56.2759 199.969 59.138 203.522 59.1803C207.019 59.2226 209.881 56.4028 209.923 52.8782C209.965 49.4099 207.103 46.5197 203.593 46.4915Z" fill="#34475B"/>
<path fill-rule="evenodd" clip-rule="evenodd" d="M147.917 43.6429L147.917 43.643C147.786 43.5223 147.799 43.4101 147.812 43.3065C147.815 43.277 147.819 43.2481 147.819 43.22C147.819 42.43 147.818 41.6408 147.817 40.8523C147.814 38.4889 147.811 36.1314 147.833 33.7739C147.833 33.2382 147.692 33.1113 147.17 33.1254C145.76 33.1677 144.35 33.1818 142.94 33.1254C142.278 33.0972 142.179 33.3228 142.179 33.9149C142.2 38.5569 142.198 43.2069 142.195 47.8589C142.194 49.4094 142.193 50.9602 142.193 52.511C142.193 53.4838 142.278 54.4284 142.433 55.3871C143.659 62.7466 150.582 66.948 157.631 64.6076C162.566 62.9722 165.907 58.5593 166.02 53.4979C166.147 48.2814 163.13 43.6148 158.378 41.8806C154.981 40.64 151.667 40.6822 148.65 43.0226C148.397 43.22 148.157 43.4315 147.917 43.6429ZM154.36 59.6168C157.885 59.6168 160.719 56.7547 160.691 53.2442C160.662 49.7054 157.8 46.8716 154.304 46.9139C150.793 46.9703 148.016 49.7759 148.002 53.2583C147.988 56.7547 150.864 59.6309 154.36 59.6168Z" fill="#34475B"/>
</g>
<rect x="71" y="26" width="2" height="45" rx="1" fill="white"/>
<defs>
<filter id="filter0_d_200_1856" x="60" y="0" width="229.184" height="108" filterUnits="userSpaceOnUse" color-interpolation-filters="sRGB">
<feFlood flood-opacity="0" result="BackgroundImageFix"/>
<feColorMatrix in="SourceAlpha" type="matrix" values="0 0 0 0 0 0 0 0 0 0 0 0 0 0 0 0 0 0 127 0" result="hardAlpha"/>
<feOffset dy="5"/>
<feGaussianBlur stdDeviation="15"/>
<feComposite in2="hardAlpha" operator="out"/>
<feColorMatrix type="matrix" values="0 0 0 0 1 0 0 0 0 1 0 0 0 0 1 0 0 0 0.3 0"/>
<feBlend mode="normal" in2="BackgroundImageFix" result="effect1_dropShadow_200_1856"/>
<feBlend mode="normal" in="SourceGraphic" in2="effect1_dropShadow_200_1856" result="shape"/>
</filter>
</defs>
</svg>
