<svg width="334" height="108" viewBox="0 0 334 108" fill="none" xmlns="http://www.w3.org/2000/svg">
<path d="M31.2744 39.2529C31.2744 36.7897 29.2699 34.7852 26.8066 34.7852C24.3434 34.7852 22.3389 36.7897 22.3389 39.2529C22.3389 41.7162 24.3434 43.7207 26.8066 43.7207C29.2699 43.7207 31.2744 41.7162 31.2744 39.2529ZM26.8066 40.7422C25.9861 40.7422 25.3174 40.075 25.3174 39.2529C25.3174 38.4309 25.9861 37.7637 26.8066 37.7637C27.6272 37.7637 28.2959 38.4324 28.2959 39.2529C28.2959 40.0735 27.6272 40.7422 26.8066 40.7422Z" fill="white"/>
<path d="M44.6777 34.7852C42.2145 34.7852 40.21 36.7897 40.21 39.2529C40.21 41.7162 42.2145 43.7207 44.6777 43.7207C47.141 43.7207 49.1455 41.7162 49.1455 39.2529C49.1455 36.7897 47.141 34.7852 44.6777 34.7852ZM44.6777 40.7422C43.8572 40.7422 43.1885 40.075 43.1885 39.2529C43.1885 38.4309 43.8572 37.7637 44.6777 37.7637C45.4983 37.7637 46.167 38.4324 46.167 39.2529C46.167 40.0735 45.4983 40.7422 44.6777 40.7422Z" fill="white"/>
<path d="M42.508 52.5238C38.3157 54.6787 33.1688 54.6787 28.9766 52.5238C28.2439 52.147 27.3473 52.4359 26.9705 53.1686C26.5938 53.9013 26.8827 54.7979 27.6154 55.1746C30.101 56.4509 32.9112 57.1271 35.7423 57.1271C38.5734 57.1271 41.3836 56.4524 43.8692 55.1746C44.6004 54.7979 44.8893 53.9013 44.514 53.1686C44.1387 52.4359 43.2407 52.147 42.508 52.5238Z" fill="white"/>
<path d="M67.0166 34.7852H62.5489V30.3174C62.5489 26.2115 59.2085 22.8711 55.1026 22.8711H37.2315V16.7026C39.793 16.0369 41.6992 13.7241 41.6992 10.957C41.6992 7.67173 39.0275 5 35.7422 5C32.4569 5 29.7852 7.67173 29.7852 10.957C29.7852 13.7241 31.6914 16.0369 34.2529 16.7026V22.8711H16.3818C12.276 22.8711 8.93555 26.2115 8.93555 30.3174V34.7852H4.46778C2.00454 34.7852 0 36.7897 0 39.2529V52.6563C0 55.1195 2.00454 57.1241 4.46778 57.1241H8.93555V61.5918C8.93555 65.6977 12.276 69.0381 16.3818 69.0381H55.1026C59.2085 69.0381 62.5489 65.6977 62.5489 61.5918V57.1241H67.0166C69.4799 57.1241 71.4844 55.1195 71.4844 52.6563V39.2529C71.4844 36.7897 69.4799 34.7852 67.0166 34.7852ZM32.7637 10.957C32.7637 9.31438 34.0996 7.97852 35.7422 7.97852C37.3849 7.97852 38.7207 9.31438 38.7207 10.957C38.7207 12.5997 37.3849 13.9356 35.7422 13.9356C34.0996 13.9356 32.7637 12.5997 32.7637 10.957ZM4.46778 54.1455C3.64719 54.1455 2.97852 53.4783 2.97852 52.6563V39.2529C2.97852 38.4324 3.64719 37.7637 4.46778 37.7637H8.93555V54.1455H4.46778ZM59.5703 61.5918C59.5703 64.0551 57.5658 66.0596 55.1026 66.0596H16.3818C13.9186 66.0596 11.9141 64.0551 11.9141 61.5918V30.3174C11.9141 27.8542 13.9186 25.8496 16.3818 25.8496H55.1026C57.5658 25.8496 59.5703 27.8542 59.5703 30.3174V61.5918ZM68.5059 52.6563C68.5059 53.4783 67.8372 54.1455 67.0166 54.1455H62.5489V37.7637H67.0166C67.8372 37.7637 68.5059 38.4324 68.5059 39.2529V52.6563Z" fill="white"/>
<path d="M92.7597 48.1555L92.7607 48.1564L97.1765 52.4387C97.1765 52.4387 97.1765 52.4387 97.1765 52.4387C97.3916 52.6474 97.6725 52.7513 97.955 52.7513C98.2374 52.7513 98.5183 52.6474 98.7334 52.4387C99.1648 52.0201 99.1644 51.3405 98.7337 50.9198L98.7334 50.9195L96.0354 48.3062H112.189C112.795 48.3062 113.291 47.8292 113.291 47.234C113.291 46.6392 112.798 46.1619 112.192 46.1619H93.4465C92.8406 46.1619 92.3446 46.6389 92.3446 47.234C92.3446 47.4561 92.4143 47.6626 92.5324 47.8327C92.5857 47.9515 92.6645 48.0605 92.7597 48.1555ZM112.95 39.9353L112.95 39.9344L109.338 35.6522L109.338 35.6521C108.952 35.1948 108.259 35.1287 107.789 35.5022C107.317 35.8772 107.247 36.5542 107.634 37.0133L107.634 37.0133L109.908 39.7069H93.4465C92.8406 39.7069 92.3446 40.1839 92.3446 40.779C92.3446 41.3742 92.8406 41.8512 93.4465 41.8512H112.192C112.798 41.8512 113.294 41.3742 113.294 40.779C113.294 40.5569 113.224 40.3504 113.106 40.1803C113.067 40.0935 113.013 40.0111 112.95 39.9353Z" fill="white" stroke="white" stroke-width="0.2"/>
<g filter="url(#filter0_d_1079_272)">
<path d="M134 27.8994C135.72 27.9135 137.426 27.9417 139.146 27.9135C139.738 27.8994 139.936 28.0263 139.936 28.6748C139.893 32.6648 139.936 36.6547 139.893 40.6587C139.879 41.3636 140.091 41.4905 140.753 41.4764C144.348 41.4482 147.944 41.4482 151.539 41.4764C152.145 41.4764 152.356 41.3636 152.356 40.701C152.314 36.6829 152.356 32.6648 152.328 28.6466C152.328 28.0545 152.497 27.9135 153.075 27.9276C154.598 27.9699 156.135 27.9558 157.658 27.9276C158.08 27.9276 158.278 27.984 158.278 28.4916C158.264 38.8964 158.264 49.3011 158.278 59.7059C158.278 60.143 158.151 60.2699 157.714 60.2558C156.135 60.2276 154.57 60.2276 152.991 60.2558C152.455 60.2699 152.328 60.1148 152.342 59.5932C152.371 55.6878 152.342 51.7966 152.371 47.8913C152.371 47.3273 152.258 47.1441 151.651 47.1441C147.958 47.1723 144.278 47.1723 140.584 47.1441C140.062 47.1441 139.921 47.2568 139.921 47.7926C139.95 51.712 139.921 55.6314 139.95 59.565C139.95 60.0725 139.851 60.2699 139.301 60.2417C137.539 60.1712 135.776 60.3122 134.028 60.1712C134 49.428 134 38.6567 134 27.8994Z" fill="#34475B"/>
<path d="M303.184 55.2514C302.648 56.6753 302.366 58.1698 301.929 59.6219C301.844 59.918 301.746 60.1295 301.393 60.1577C299.335 60.3833 297.305 60.3128 295.387 59.4528C292.807 58.2967 291.425 56.2242 291.355 53.4326C291.242 49.5414 291.313 45.6361 291.299 41.7449C291.299 38.9956 291.313 36.2464 291.284 33.4972C291.284 33.0601 291.397 32.8345 291.806 32.6513C293.329 32.0027 294.851 31.326 296.36 30.6069C296.952 30.325 296.98 30.5365 296.98 31.0581C296.952 32.7076 297.023 34.3431 296.952 35.9926C296.924 36.754 297.178 36.8667 297.854 36.8385C299.095 36.7821 300.35 36.8385 301.591 36.8103C301.971 36.8103 302.126 36.909 302.126 37.3179C302.098 38.6291 302.098 39.9543 302.126 41.2655C302.14 41.7026 301.943 41.759 301.576 41.759C300.237 41.7449 298.898 41.7731 297.558 41.7449C297.107 41.7308 296.952 41.8436 296.966 42.3229C296.994 45.4246 296.966 48.5263 296.98 51.628C296.994 53.6441 298.024 54.7297 300.026 54.9976C301.083 55.1386 302.14 55.0258 303.184 54.9694C303.184 55.0681 303.184 55.1527 303.184 55.2514Z" fill="#34475B"/>
<path d="M221.454 60.2427C217.633 60.2427 214.588 58.6214 212.121 55.7735C211.867 55.4915 211.923 55.3364 212.163 55.0967C213.319 53.9265 214.461 52.7422 215.575 51.5439C215.829 51.276 215.969 51.2337 216.223 51.5439C216.632 52.0373 217.055 52.5026 217.52 52.9396C219.001 54.3213 220.763 54.7724 222.723 54.4059C224.231 54.1239 225.43 52.8691 225.683 51.4593C225.923 50.0494 225.303 48.8228 223.865 47.9487C222.469 47.1028 220.89 46.708 219.381 46.1018C218.606 45.7916 217.816 45.4814 217.055 45.1149C214.39 43.8178 212.755 41.7453 212.459 38.7564C212.092 35.0907 213.037 31.9045 216.237 29.7897C220.791 26.7725 227.15 27.4493 231.027 31.6366C231.365 32.0031 231.393 32.2146 231.041 32.6094C230.04 33.7232 229.081 34.8793 228.123 36.0495C227.855 36.3737 227.7 36.4301 227.361 36.1058C226.445 35.1894 225.359 34.4845 224.133 34.0192C223.47 33.7655 222.779 33.6527 222.06 33.6809C219.692 33.7796 218.253 35.4714 218.578 37.8259C218.705 38.7141 219.283 39.2921 220.016 39.7151C221.059 40.3213 222.215 40.6315 223.357 41.0122C224.4 41.3505 225.444 41.703 226.459 42.1401C229.49 43.4794 231.267 45.7493 231.774 49.0484C232.507 53.6587 230.435 57.5922 226.247 59.3404C224.725 59.9748 223.118 60.2427 221.454 60.2427Z" fill="#34475B"/>
<path d="M161.746 43.6191C161.746 41.2647 161.76 38.9243 161.732 36.5698C161.732 36.0905 161.831 35.9213 162.338 35.9354C163.79 35.9777 165.257 35.9777 166.709 35.9354C167.273 35.9213 167.357 36.1328 167.357 36.6262C167.343 40.9263 167.343 45.2264 167.357 49.5265C167.357 51.9232 168.584 53.7279 170.642 54.4187C173.899 55.5184 177.071 53.1498 177.1 49.5688C177.128 45.2969 177.114 41.025 177.085 36.739C177.085 36.0764 177.283 35.9213 177.903 35.9495C179.313 35.9918 180.723 35.9777 182.133 35.9495C182.584 35.9354 182.683 36.0905 182.683 36.5134C182.669 41.0532 182.725 45.5788 182.654 50.1186C182.57 55.6312 178.284 59.9313 172.602 60.2978C167.541 60.6221 162.775 56.745 161.901 51.599C161.788 50.894 161.76 50.2032 161.76 49.4983C161.746 47.5245 161.746 45.5647 161.746 43.6191Z" fill="#34475B"/>
<path fill-rule="evenodd" clip-rule="evenodd" d="M273.544 32.1551C273.546 32.3433 273.548 32.5319 273.548 32.7218C273.548 32.8745 273.548 33.0267 273.547 33.1784C273.545 33.7829 273.543 34.3802 273.577 34.9775C273.591 35.4005 273.492 35.5838 273.027 35.6684C271.349 35.9644 269.77 36.5989 268.416 37.6422C267.824 38.0933 267.5 37.9664 266.992 37.5717C262.425 33.9906 257.857 30.4237 253.26 26.8849C252.64 26.4056 252.302 25.9967 252.4 25.0803C252.612 22.9091 251.174 20.9353 249.073 20.2445C247.029 19.5677 244.773 20.3291 243.546 22.1196C242.32 23.896 242.419 26.2505 243.786 27.9564C245.125 29.6201 247.438 30.2122 249.44 29.3522C249.834 29.183 250.088 29.1971 250.441 29.465C255.192 33.187 259.957 36.895 264.723 40.5888C265.061 40.8426 265.117 41.0118 264.892 41.4206C262.439 45.763 262.509 50.0913 265.075 54.3632C265.287 54.7156 265.287 54.913 264.99 55.195C263.877 56.2806 262.763 57.3662 261.705 58.4941C261.127 59.1003 260.606 59.6079 259.675 59.2695C259.534 59.2191 259.357 59.2551 259.185 59.2901C259.117 59.304 259.049 59.3178 258.984 59.3259C256.856 59.6079 255.262 61.6945 255.601 63.767C255.981 66.0932 257.983 67.5877 260.267 67.2211C262.41 66.8828 263.947 64.7257 263.524 62.6109C263.44 62.2443 263.496 62.0187 263.764 61.7508C265.033 60.4961 266.302 59.2413 267.542 57.9583C267.867 57.6199 268.078 57.6058 268.473 57.8737C270.404 59.2272 272.561 59.9744 274.916 60.059C281.669 60.2987 287.168 55.477 287.802 48.7801C288.38 42.6472 284.094 36.9654 277.919 35.6825C277.468 35.5979 277.355 35.4428 277.355 35.0057C277.383 33.5254 277.383 32.045 277.355 30.5647C277.341 30.1135 277.496 29.8597 277.877 29.6201C279.667 28.464 280.33 26.18 279.498 24.2203C278.765 22.472 277.017 21.4287 275.085 21.5697C273.266 21.6966 271.659 23.0078 271.194 24.7419C270.686 26.6029 271.363 28.5486 272.942 29.5637C273.436 29.8738 273.591 30.2122 273.562 30.7479C273.532 31.2208 273.538 31.6864 273.544 32.1551ZM275.071 54.0949C278.511 54.2218 281.429 51.388 281.542 47.8492C281.655 44.5219 278.878 41.5612 275.55 41.4343C272.026 41.3075 269.051 44.0567 268.938 47.525C268.825 51.0355 271.575 53.968 275.071 54.0949Z" fill="#F4795B"/>
<path fill-rule="evenodd" clip-rule="evenodd" d="M241.018 60.2898C241.02 59.3519 241.023 58.4107 241.023 57.4649C241.069 57.4804 241.105 57.4903 241.132 57.4979C241.179 57.511 241.202 57.5176 241.22 57.5354C243.998 60.1577 247.268 60.4961 250.737 59.5092C256.545 57.8456 260.028 52.0933 259.069 45.904C257.913 38.4317 249.2 33.6382 242.376 36.7963C237.738 38.9534 235.567 42.8869 235.454 47.8496C235.348 52.2794 235.367 56.7157 235.385 61.1497C235.393 63.2495 235.402 65.3489 235.397 67.4467C235.397 67.8979 235.538 67.9966 235.961 67.9966C237.399 67.9684 238.823 67.9543 240.261 67.9966C240.854 68.0248 241.051 67.8979 241.037 67.2493C241.007 64.9363 241.012 62.6233 241.018 60.2898ZM247.593 41.4915C244.124 41.4633 241.291 44.2689 241.234 47.7654C241.178 51.2759 243.969 54.138 247.522 54.1803C251.019 54.2226 253.881 51.4028 253.923 47.8782C253.965 44.4099 251.103 41.5197 247.593 41.4915Z" fill="#34475B"/>
<path fill-rule="evenodd" clip-rule="evenodd" d="M191.917 38.6429L191.917 38.643C191.786 38.5223 191.799 38.4101 191.812 38.3065C191.815 38.277 191.819 38.2481 191.819 38.22C191.819 37.43 191.818 36.6408 191.817 35.8523C191.814 33.4889 191.811 31.1314 191.833 28.7739C191.833 28.2382 191.692 28.1113 191.17 28.1254C189.76 28.1677 188.35 28.1818 186.94 28.1254C186.278 28.0972 186.179 28.3228 186.179 28.9149C186.2 33.5569 186.198 38.2069 186.195 42.8589C186.194 44.4094 186.193 45.9602 186.193 47.511C186.193 48.4838 186.278 49.4284 186.433 50.3871C187.659 57.7466 194.582 61.948 201.631 59.6076C206.566 57.9722 209.907 53.5593 210.02 48.4979C210.147 43.2814 207.13 38.6148 202.378 36.8806C198.981 35.64 195.667 35.6822 192.65 38.0226C192.397 38.22 192.157 38.4315 191.917 38.6429ZM198.36 54.6168C201.885 54.6168 204.719 51.7547 204.691 48.2442C204.662 44.7054 201.8 41.8716 198.304 41.9139C194.793 41.9703 192.016 44.7759 192.002 48.2583C191.988 51.7547 194.864 54.6309 198.36 54.6168Z" fill="#34475B"/>
</g>
<defs>
<filter id="filter0_d_1079_272" x="104" y="0" width="229.184" height="108" filterUnits="userSpaceOnUse" color-interpolation-filters="sRGB">
<feFlood flood-opacity="0" result="BackgroundImageFix"/>
<feColorMatrix in="SourceAlpha" type="matrix" values="0 0 0 0 0 0 0 0 0 0 0 0 0 0 0 0 0 0 127 0" result="hardAlpha"/>
<feOffset dy="10"/>
<feGaussianBlur stdDeviation="15"/>
<feComposite in2="hardAlpha" operator="out"/>
<feColorMatrix type="matrix" values="0 0 0 0 1 0 0 0 0 1 0 0 0 0 1 0 0 0 0.3 0"/>
<feBlend mode="normal" in2="BackgroundImageFix" result="effect1_dropShadow_1079_272"/>
<feBlend mode="normal" in="SourceGraphic" in2="effect1_dropShadow_1079_272" result="shape"/>
</filter>
</defs>
</svg>
