<svg width="245" height="62" viewBox="0 0 245 62" fill="none" xmlns="http://www.w3.org/2000/svg">
<g filter="url(#filter0_ii_200_1880)">
<path fill-rule="evenodd" clip-rule="evenodd" d="M235.047 17.8649L222.286 5.10449L198.703 5.10449C195.942 5.10449 193.703 7.34307 193.703 10.1045V51.1462C193.703 53.9076 195.942 56.1462 198.703 56.1462H230.047C232.808 56.1462 235.047 53.9076 235.047 51.1462V17.8649Z" fill="white"/>
</g>
<path d="M215.457 43.3857V26.1483H222.191V24.2451H206.559V26.1483H213.293V43.3857H215.457Z" fill="#8289AD"/>
<path d="M235.047 17.8643L222.286 5.10384C222.286 12.1512 227.999 17.8643 235.047 17.8643Z" fill="#CDCFDE"/>
<g filter="url(#filter1_ii_200_1880)">
<path fill-rule="evenodd" clip-rule="evenodd" d="M173.797 19.936C173.797 18.6099 173.27 17.3381 172.332 16.4004L162.501 6.56896C161.563 5.63128 160.291 5.10449 158.965 5.10449L137.453 5.10449C134.692 5.10449 132.453 7.34307 132.453 10.1045V51.1462C132.453 53.9076 134.692 56.1462 137.453 56.1462H168.797C171.558 56.1462 173.797 53.9076 173.797 51.1462V19.936Z" fill="white"/>
</g>
<path d="M149.258 43.3851L153.101 29.2954H153.172L156.992 43.3851H159.138L163.971 26.4775H161.802L158.1 40.662H158.006L154.186 26.4775H152.088L148.244 40.662H148.15L144.448 26.4775H142.279L147.112 43.3851H149.258Z" fill="#4876F9"/>
<path d="M173.797 17.8643L161.036 5.10384C161.036 12.1512 166.749 17.8643 173.797 17.8643Z" fill="#B5C8FC"/>
<g filter="url(#filter2_ii_200_1880)">
<path fill-rule="evenodd" clip-rule="evenodd" d="M112.547 17.8649L99.7865 5.10449L76.2031 5.10449C73.4417 5.10449 71.2031 7.34307 71.2031 10.1045V51.1462C71.2031 53.9076 73.4417 56.1462 76.2031 56.1462H107.547C110.308 56.1462 112.547 53.9076 112.547 51.1462L112.547 17.8649Z" fill="white"/>
</g>
<path d="M86.1456 43.3857L91.8606 35.1827L97.6054 43.3857H100.329L93.182 33.4403L99.8142 24.2451H97.0908L91.8606 31.6975L86.656 24.2451H83.9335L90.5125 33.4403L83.4212 43.3857H86.1456Z" fill="#32BD7A"/>
<path d="M112.547 17.8643L99.7865 5.10384C99.7865 12.1512 105.499 17.8643 112.547 17.8643Z" fill="#BFE6C1"/>
<g filter="url(#filter3_ii_200_1880)">
<path fill-rule="evenodd" clip-rule="evenodd" d="M51.2969 17.8649L38.5365 5.10449L14.9531 5.10449C12.1917 5.10449 9.95312 7.34307 9.95312 10.1045V51.1462C9.95312 53.9076 12.1917 56.1462 14.9531 56.1462H46.2969C49.0583 56.1462 51.2969 53.9076 51.2969 51.1462V17.8649Z" fill="white"/>
</g>
<path d="M38.9145 39.4794C37.1921 39.3514 35.5339 38.7118 34.1944 37.5605C31.5792 38.136 29.0912 38.9674 26.6036 39.9911C24.6263 43.5088 22.7764 45.2997 21.1817 45.2997C20.8626 45.2997 20.4801 45.2359 20.2249 45.0439C19.5231 44.7242 19.1406 44.0205 19.1406 43.3171C19.1406 42.7413 19.2682 41.1424 25.3278 38.5198C26.7315 35.9613 27.8155 33.3391 28.7087 30.5889C27.9431 29.0538 26.2849 25.2799 27.4327 23.3614C27.8155 22.6576 28.5811 22.2739 29.4105 22.338C30.0482 22.338 30.6859 22.6576 31.0687 23.1693C31.8982 24.3206 31.8344 26.7512 30.7497 30.333C31.7706 32.2491 33.1076 33.9791 34.7045 35.45C36.0443 35.1938 37.3836 35.0021 38.7231 35.0021C41.7211 35.0659 42.1678 36.473 42.104 37.3047C42.104 39.4794 39.9988 39.4794 38.9145 39.4794ZM21.0544 43.4447L21.2458 43.3809C22.1387 43.0612 22.8402 42.4216 23.3506 41.5899C22.3936 41.9737 21.6283 42.6133 21.0544 43.445V43.4447ZM29.5378 24.2568H29.3464C29.2826 24.2568 29.155 24.2568 29.0912 24.3206C28.836 25.4078 29.0274 26.5591 29.474 27.5825C29.8568 26.4953 29.8568 25.344 29.5378 24.2568ZM29.9844 33.5311L29.9206 33.6587L29.8568 33.5949C29.2826 35.0662 28.6446 36.5371 27.9431 37.9443L28.0707 37.8805V38.0081C29.4892 37.4938 30.9377 37.0666 32.4083 36.7289L32.3445 36.6651H32.5359C31.5788 35.7055 30.6859 34.6183 29.9844 33.5311ZM38.6593 36.9209C38.0851 36.9209 37.575 36.9209 37.0007 37.0485C37.6388 37.3685 38.2768 37.4964 38.9145 37.5605C39.3611 37.6243 39.8077 37.5605 40.1902 37.4326C40.1902 37.2406 39.935 36.9209 38.6593 36.9209Z" fill="#FA4E4E"/>
<path d="M51.2969 17.8643L38.5365 5.10384C38.5365 12.1512 44.2495 17.8643 51.2969 17.8643Z" fill="#FDB8B8"/>
<defs>
<filter id="filter0_ii_200_1880" x="193.703" y="4.10449" width="41.3438" height="53.042" filterUnits="userSpaceOnUse" color-interpolation-filters="sRGB">
<feFlood flood-opacity="0" result="BackgroundImageFix"/>
<feBlend mode="normal" in="SourceGraphic" in2="BackgroundImageFix" result="shape"/>
<feColorMatrix in="SourceAlpha" type="matrix" values="0 0 0 0 0 0 0 0 0 0 0 0 0 0 0 0 0 0 127 0" result="hardAlpha"/>
<feOffset dy="-2"/>
<feGaussianBlur stdDeviation="0.5"/>
<feComposite in2="hardAlpha" operator="arithmetic" k2="-1" k3="1"/>
<feColorMatrix type="matrix" values="0 0 0 0 0 0 0 0 0 0 0 0 0 0 0 0 0 0 0.3 0"/>
<feBlend mode="normal" in2="shape" result="effect1_innerShadow_200_1880"/>
<feColorMatrix in="SourceAlpha" type="matrix" values="0 0 0 0 0 0 0 0 0 0 0 0 0 0 0 0 0 0 127 0" result="hardAlpha"/>
<feOffset dy="2"/>
<feGaussianBlur stdDeviation="0.5"/>
<feComposite in2="hardAlpha" operator="arithmetic" k2="-1" k3="1"/>
<feColorMatrix type="matrix" values="0 0 0 0 1 0 0 0 0 1 0 0 0 0 1 0 0 0 0.3 0"/>
<feBlend mode="normal" in2="effect1_innerShadow_200_1880" result="effect2_innerShadow_200_1880"/>
</filter>
<filter id="filter1_ii_200_1880" x="132.453" y="4.10449" width="41.3438" height="53.042" filterUnits="userSpaceOnUse" color-interpolation-filters="sRGB">
<feFlood flood-opacity="0" result="BackgroundImageFix"/>
<feBlend mode="normal" in="SourceGraphic" in2="BackgroundImageFix" result="shape"/>
<feColorMatrix in="SourceAlpha" type="matrix" values="0 0 0 0 0 0 0 0 0 0 0 0 0 0 0 0 0 0 127 0" result="hardAlpha"/>
<feOffset dy="-2"/>
<feGaussianBlur stdDeviation="0.5"/>
<feComposite in2="hardAlpha" operator="arithmetic" k2="-1" k3="1"/>
<feColorMatrix type="matrix" values="0 0 0 0 0 0 0 0 0 0 0 0 0 0 0 0 0 0 0.3 0"/>
<feBlend mode="normal" in2="shape" result="effect1_innerShadow_200_1880"/>
<feColorMatrix in="SourceAlpha" type="matrix" values="0 0 0 0 0 0 0 0 0 0 0 0 0 0 0 0 0 0 127 0" result="hardAlpha"/>
<feOffset dy="2"/>
<feGaussianBlur stdDeviation="0.5"/>
<feComposite in2="hardAlpha" operator="arithmetic" k2="-1" k3="1"/>
<feColorMatrix type="matrix" values="0 0 0 0 1 0 0 0 0 1 0 0 0 0 1 0 0 0 0.3 0"/>
<feBlend mode="normal" in2="effect1_innerShadow_200_1880" result="effect2_innerShadow_200_1880"/>
</filter>
<filter id="filter2_ii_200_1880" x="71.2031" y="4.10449" width="41.3438" height="53.042" filterUnits="userSpaceOnUse" color-interpolation-filters="sRGB">
<feFlood flood-opacity="0" result="BackgroundImageFix"/>
<feBlend mode="normal" in="SourceGraphic" in2="BackgroundImageFix" result="shape"/>
<feColorMatrix in="SourceAlpha" type="matrix" values="0 0 0 0 0 0 0 0 0 0 0 0 0 0 0 0 0 0 127 0" result="hardAlpha"/>
<feOffset dy="-2"/>
<feGaussianBlur stdDeviation="0.5"/>
<feComposite in2="hardAlpha" operator="arithmetic" k2="-1" k3="1"/>
<feColorMatrix type="matrix" values="0 0 0 0 0 0 0 0 0 0 0 0 0 0 0 0 0 0 0.3 0"/>
<feBlend mode="normal" in2="shape" result="effect1_innerShadow_200_1880"/>
<feColorMatrix in="SourceAlpha" type="matrix" values="0 0 0 0 0 0 0 0 0 0 0 0 0 0 0 0 0 0 127 0" result="hardAlpha"/>
<feOffset dy="2"/>
<feGaussianBlur stdDeviation="0.5"/>
<feComposite in2="hardAlpha" operator="arithmetic" k2="-1" k3="1"/>
<feColorMatrix type="matrix" values="0 0 0 0 1 0 0 0 0 1 0 0 0 0 1 0 0 0 0.3 0"/>
<feBlend mode="normal" in2="effect1_innerShadow_200_1880" result="effect2_innerShadow_200_1880"/>
</filter>
<filter id="filter3_ii_200_1880" x="9.95312" y="4.10449" width="41.3438" height="53.042" filterUnits="userSpaceOnUse" color-interpolation-filters="sRGB">
<feFlood flood-opacity="0" result="BackgroundImageFix"/>
<feBlend mode="normal" in="SourceGraphic" in2="BackgroundImageFix" result="shape"/>
<feColorMatrix in="SourceAlpha" type="matrix" values="0 0 0 0 0 0 0 0 0 0 0 0 0 0 0 0 0 0 127 0" result="hardAlpha"/>
<feOffset dy="-2"/>
<feGaussianBlur stdDeviation="0.5"/>
<feComposite in2="hardAlpha" operator="arithmetic" k2="-1" k3="1"/>
<feColorMatrix type="matrix" values="0 0 0 0 0 0 0 0 0 0 0 0 0 0 0 0 0 0 0.3 0"/>
<feBlend mode="normal" in2="shape" result="effect1_innerShadow_200_1880"/>
<feColorMatrix in="SourceAlpha" type="matrix" values="0 0 0 0 0 0 0 0 0 0 0 0 0 0 0 0 0 0 127 0" result="hardAlpha"/>
<feOffset dy="2"/>
<feGaussianBlur stdDeviation="0.5"/>
<feComposite in2="hardAlpha" operator="arithmetic" k2="-1" k3="1"/>
<feColorMatrix type="matrix" values="0 0 0 0 1 0 0 0 0 1 0 0 0 0 1 0 0 0 0.3 0"/>
<feBlend mode="normal" in2="effect1_innerShadow_200_1880" result="effect2_innerShadow_200_1880"/>
</filter>
</defs>
</svg>
