<svg width="82" height="84" viewBox="0 0 82 84" fill="none" xmlns="http://www.w3.org/2000/svg">
<g filter="url(#filter0_ii_253_1423)">
<path d="M0 20C0 8.95432 8.9543 0 20 0H61.675C72.7207 0 81.675 8.95431 81.675 20V63.3333C81.675 74.379 72.7207 83.3333 61.675 83.3333H20C8.95429 83.3333 0 74.379 0 63.3333V20Z" fill="white"/>
</g>
<path d="M12.356 37.2357C15.272 36.0597 18.452 35.3877 21.8 35.3877C35.72 35.3877 47 46.6677 47 60.5877C47 63.7317 46.4 66.7437 45.344 69.5157H12.356V37.2357Z" fill="#4085F9"/>
<path d="M53.7318 69.5986L62.3838 69.5986L62.3838 26.7226L53.7318 26.7226L53.7318 69.5986Z" fill="#E9F4BC"/>
<path d="M36.8241 69.5986L45.4761 69.5986L45.4761 43.4386L36.8241 43.4386L36.8241 69.5986Z" fill="#E9F4BC"/>
<path d="M19.9159 69.6016L28.5679 69.6016L28.5679 52.6816L19.9159 52.6816L19.9159 69.6016Z" fill="#E9F4BC"/>
<path d="M53.7318 69.5986L62.3838 69.5986L62.3838 26.7226L53.7318 26.7226L53.7318 69.5986Z" fill="#E9F4BC"/>
<path d="M36.8241 69.5986L45.4761 69.5986L45.4761 43.4386L36.8241 43.4386L36.8241 69.5986Z" fill="#FF9D9C"/>
<path d="M19.9159 69.6016L28.5679 69.6016L28.5679 52.6816L19.9159 52.6816L19.9159 69.6016Z" fill="#FDE4A1"/>
<path d="M68.7558 68.7H63.2958V26.724C63.2958 26.232 62.8878 25.824 62.3958 25.824H53.7438C53.2518 25.824 52.8438 26.232 52.8438 26.724V68.7H46.3878V43.44C46.3878 42.948 45.9798 42.54 45.4878 42.54H36.8358C36.3438 42.54 35.9358 42.948 35.9358 43.44V68.7H29.4798V52.68C29.4798 52.188 29.0718 51.78 28.5798 51.78H19.9158C19.4238 51.78 19.0158 52.188 19.0158 52.68V68.7H14.4558V14.4C14.4558 13.908 14.0478 13.5 13.5558 13.5C13.0638 13.5 12.6558 13.908 12.6558 14.4V69.6C12.6558 70.092 13.0638 70.5 13.5558 70.5H68.7558C69.2478 70.5 69.6558 70.092 69.6558 69.6C69.6558 69.108 69.2478 68.7 68.7558 68.7ZM20.8158 68.7V53.58H27.6678V68.7H20.8158ZM37.7238 68.7V44.34H44.5758V68.7H37.7238ZM54.6318 68.7V27.624H61.4838V68.7H54.6318Z" fill="#505050"/>
<path d="M22.6397 49.0556C22.8677 49.0556 23.0957 48.9716 23.2757 48.7916L46.7717 25.2956V29.2436C46.7717 29.7356 47.1797 30.1436 47.6717 30.1436C48.1637 30.1436 48.5717 29.7356 48.5717 29.2436V23.1236C48.5717 22.6316 48.1637 22.2236 47.6717 22.2236H41.5517C41.0597 22.2236 40.6517 22.6316 40.6517 23.1236C40.6517 23.6156 41.0597 24.0236 41.5517 24.0236H45.4997L22.0037 47.5196C21.6557 47.8676 21.6557 48.4436 22.0037 48.7916C22.1837 48.9716 22.4117 49.0556 22.6397 49.0556Z" fill="#505050"/>
<defs>
<filter id="filter0_ii_253_1423" x="0" y="-1" width="81.6748" height="85.333" filterUnits="userSpaceOnUse" color-interpolation-filters="sRGB">
<feFlood flood-opacity="0" result="BackgroundImageFix"/>
<feBlend mode="normal" in="SourceGraphic" in2="BackgroundImageFix" result="shape"/>
<feColorMatrix in="SourceAlpha" type="matrix" values="0 0 0 0 0 0 0 0 0 0 0 0 0 0 0 0 0 0 127 0" result="hardAlpha"/>
<feOffset dy="-2"/>
<feGaussianBlur stdDeviation="0.5"/>
<feComposite in2="hardAlpha" operator="arithmetic" k2="-1" k3="1"/>
<feColorMatrix type="matrix" values="0 0 0 0 0 0 0 0 0 0 0 0 0 0 0 0 0 0 0.3 0"/>
<feBlend mode="normal" in2="shape" result="effect1_innerShadow_253_1423"/>
<feColorMatrix in="SourceAlpha" type="matrix" values="0 0 0 0 0 0 0 0 0 0 0 0 0 0 0 0 0 0 127 0" result="hardAlpha"/>
<feOffset dy="2"/>
<feGaussianBlur stdDeviation="0.5"/>
<feComposite in2="hardAlpha" operator="arithmetic" k2="-1" k3="1"/>
<feColorMatrix type="matrix" values="0 0 0 0 1 0 0 0 0 1 0 0 0 0 1 0 0 0 0.3 0"/>
<feBlend mode="normal" in2="effect1_innerShadow_253_1423" result="effect2_innerShadow_253_1423"/>
</filter>
</defs>
</svg>
