<svg width="82" height="84" viewBox="0 0 82 84" fill="none" xmlns="http://www.w3.org/2000/svg">
<g filter="url(#filter0_ii_253_1394)">
<path d="M0 20C0 8.95432 8.9543 0 20 0H61.675C72.7207 0 81.675 8.95431 81.675 20V63.3333C81.675 74.379 72.7207 83.3333 61.675 83.3333H20C8.95429 83.3333 0 74.379 0 63.3333V20Z" fill="white"/>
</g>
<g clip-path="url(#clip0_253_1394)">
<path d="M61.8594 20.2262C61.3577 19.8816 60.7792 19.6651 60.1745 19.5956C59.5699 19.5262 58.9574 19.6059 58.3906 19.8278C55.1094 21.1169 48.4531 23.2497 41 23.2497C33.5469 23.2497 26.8906 21.1169 23.6094 19.8278C23.0413 19.6068 22.4279 19.5277 21.8223 19.5972C21.2167 19.6667 20.6372 19.8828 20.134 20.2268C19.6307 20.5707 19.2189 21.0322 18.9342 21.5712C18.6495 22.1102 18.5004 22.7104 18.5 23.32V36.3747C18.5 44.7653 20.7734 52.6637 24.875 58.6403C28.9766 64.6169 34.8594 68.2497 41 68.2497C47.1406 68.2497 52.8828 64.8512 57.125 58.6403C61.3672 52.4294 63.5 44.7653 63.5 36.3747V23.32C63.5009 22.7094 63.3518 22.1079 63.0657 21.5684C62.7796 21.0289 62.3654 20.568 61.8594 20.2262ZM29.7734 43.2419C29.6104 43.4267 29.4125 43.5776 29.1912 43.6858C28.9698 43.7941 28.7292 43.8577 28.4832 43.8729C28.2373 43.8882 27.9907 43.8548 27.7576 43.7746C27.5246 43.6945 27.3096 43.5692 27.125 43.4059C26.9418 43.2413 26.7929 43.0422 26.6867 42.82C26.5805 42.5977 26.5191 42.3568 26.506 42.1108C26.493 41.8649 26.5285 41.6188 26.6106 41.3866C26.6926 41.1544 26.8197 40.9406 26.9844 40.7575C27.6837 39.9683 28.5425 39.3365 29.5041 38.9038C30.4656 38.4711 31.5081 38.2474 32.5625 38.2474C33.6169 38.2474 34.6594 38.4711 35.6209 38.9038C36.5825 39.3365 37.4413 39.9683 38.1406 40.7575C38.3053 40.9406 38.4324 41.1544 38.5144 41.3866C38.5965 41.6188 38.632 41.8649 38.619 42.1108C38.6059 42.3568 38.5445 42.5977 38.4383 42.82C38.3321 43.0422 38.1832 43.2413 38 43.4059C37.6559 43.7066 37.2148 43.873 36.7578 43.8747C36.4919 43.8749 36.2291 43.8186 35.9866 43.7095C35.7442 43.6004 35.5277 43.441 35.3516 43.2419C34.9999 42.8506 34.5698 42.5377 34.0893 42.3235C33.6088 42.1093 33.0886 41.9986 32.5625 41.9986C32.0364 41.9986 31.5162 42.1093 31.0357 42.3235C30.5552 42.5377 30.1251 42.8506 29.7734 43.2419ZM48.2656 54.82C46.1094 56.2423 43.5831 57.0005 41 57.0005C38.4169 57.0005 35.8906 56.2423 33.7344 54.82C33.3259 54.5394 33.0433 54.1103 32.9469 53.6242C32.8506 53.1381 32.9481 52.6336 33.2188 52.2184C33.3538 52.0118 33.5284 51.8339 33.7324 51.695C33.9364 51.556 34.1659 51.4587 34.4076 51.4086C34.6493 51.3585 34.8985 51.3567 35.1409 51.4031C35.3834 51.4496 35.6142 51.5435 35.8203 51.6794C37.3537 52.7032 39.1562 53.2496 41 53.2496C42.8438 53.2496 44.6463 52.7032 46.1797 51.6794C46.3858 51.5435 46.6166 51.4496 46.8591 51.4031C47.1015 51.3567 47.3507 51.3585 47.5924 51.4086C47.8341 51.4587 48.0636 51.556 48.2676 51.695C48.4716 51.8339 48.6462 52.0118 48.7812 52.2184C49.0519 52.6336 49.1494 53.1381 49.0531 53.6242C48.9567 54.1103 48.6741 54.5394 48.2656 54.82ZM54.875 43.4059C54.5308 43.7066 54.0898 43.873 53.6328 43.8747C53.3669 43.8749 53.1041 43.8186 52.8616 43.7095C52.6192 43.6004 52.4027 43.441 52.2266 43.2419C51.8749 42.8506 51.4448 42.5377 50.9643 42.3235C50.4838 42.1093 49.9636 41.9986 49.4375 41.9986C48.9114 41.9986 48.3912 42.1093 47.9107 42.3235C47.4302 42.5377 47.0001 42.8506 46.6484 43.2419C46.4854 43.4267 46.2875 43.5776 46.0662 43.6858C45.8448 43.7941 45.6042 43.8577 45.3582 43.8729C45.1123 43.8882 44.8657 43.8548 44.6326 43.7746C44.3996 43.6945 44.1846 43.5692 44 43.4059C43.8168 43.2413 43.6679 43.0422 43.5617 42.82C43.4555 42.5977 43.3941 42.3568 43.381 42.1108C43.368 41.8649 43.4035 41.6188 43.4856 41.3866C43.5676 41.1544 43.6947 40.9406 43.8594 40.7575C44.5587 39.9683 45.4175 39.3365 46.3791 38.9038C47.3406 38.4711 48.3831 38.2474 49.4375 38.2474C50.4919 38.2474 51.5344 38.4711 52.4959 38.9038C53.4575 39.3365 54.3163 39.9683 55.0156 40.7575C55.1803 40.9406 55.3074 41.1544 55.3894 41.3866C55.4715 41.6188 55.507 41.8649 55.494 42.1108C55.4809 42.3568 55.4195 42.5977 55.3133 42.82C55.2071 43.0422 55.0582 43.2413 54.875 43.4059Z" fill="#4085F9"/>
</g>
<defs>
<filter id="filter0_ii_253_1394" x="0" y="-1" width="81.675" height="85.333" filterUnits="userSpaceOnUse" color-interpolation-filters="sRGB">
<feFlood flood-opacity="0" result="BackgroundImageFix"/>
<feBlend mode="normal" in="SourceGraphic" in2="BackgroundImageFix" result="shape"/>
<feColorMatrix in="SourceAlpha" type="matrix" values="0 0 0 0 0 0 0 0 0 0 0 0 0 0 0 0 0 0 127 0" result="hardAlpha"/>
<feOffset dy="-2"/>
<feGaussianBlur stdDeviation="0.5"/>
<feComposite in2="hardAlpha" operator="arithmetic" k2="-1" k3="1"/>
<feColorMatrix type="matrix" values="0 0 0 0 0 0 0 0 0 0 0 0 0 0 0 0 0 0 0.3 0"/>
<feBlend mode="normal" in2="shape" result="effect1_innerShadow_253_1394"/>
<feColorMatrix in="SourceAlpha" type="matrix" values="0 0 0 0 0 0 0 0 0 0 0 0 0 0 0 0 0 0 127 0" result="hardAlpha"/>
<feOffset dy="2"/>
<feGaussianBlur stdDeviation="0.5"/>
<feComposite in2="hardAlpha" operator="arithmetic" k2="-1" k3="1"/>
<feColorMatrix type="matrix" values="0 0 0 0 1 0 0 0 0 1 0 0 0 0 1 0 0 0 0.3 0"/>
<feBlend mode="normal" in2="effect1_innerShadow_253_1394" result="effect2_innerShadow_253_1394"/>
</filter>
<clipPath id="clip0_253_1394">
<rect width="60" height="60" fill="white" transform="translate(11 12)"/>
</clipPath>
</defs>
</svg>
