<svg width="82" height="84" viewBox="0 0 82 84" fill="none" xmlns="http://www.w3.org/2000/svg">
<g filter="url(#filter0_ii_253_1381)">
<path d="M0 20C0 8.95432 8.9543 0 20 0H61.675C72.7207 0 81.675 8.95431 81.675 20V63.3333C81.675 74.379 72.7207 83.3333 61.675 83.3333H20C8.95429 83.3333 0 74.379 0 63.3333V20Z" fill="white"/>
</g>
<g clip-path="url(#clip0_253_1381)">
<path d="M71.7109 12.1172H48.2734C47.6263 12.1172 47.1016 12.642 47.1016 13.2891V22.3887C47.1016 22.851 47.3734 23.2702 47.7957 23.4587C48.218 23.6471 48.7114 23.5699 49.0558 23.2611C49.4853 22.8762 50.0397 22.6641 50.6172 22.6641C51.9095 22.6641 52.9609 23.7155 52.9609 25.0078C52.9609 26.3002 51.9095 27.3516 50.6172 27.3516C50.0397 27.3516 49.4853 27.1395 49.0558 26.7544C48.7115 26.4456 48.2179 26.3682 47.7957 26.5568C47.3734 26.7452 47.1016 27.1645 47.1016 27.6268V36.7266C47.1016 37.3737 47.6263 37.8984 48.2734 37.8984H71.7109C72.358 37.8984 72.8828 37.3737 72.8828 36.7266V13.2891C72.8828 12.642 72.358 12.1172 71.7109 12.1172ZM70.5391 35.5547H49.4453V29.5467C52.4113 30.3121 55.3047 28.0639 55.3047 25.0078C55.3047 21.9574 52.4157 19.7023 49.4453 20.4689V14.4609H70.5391V35.5547Z" fill="#F98989"/>
<path d="M61.1641 46.1016H38.8984V40.0936C41.8645 40.8589 44.7578 38.6108 44.7578 35.5547C44.7578 32.5043 41.8688 30.2491 38.8984 31.0158V23.8359C38.8984 23.1888 38.3737 22.6641 37.7266 22.6641H28.627C28.1646 22.6641 27.7455 22.9359 27.5569 23.3582C27.3684 23.7805 27.4458 24.274 27.7545 24.6183C28.1395 25.0478 28.3516 25.6022 28.3516 26.1797C28.3516 27.472 27.3002 28.5234 26.0078 28.5234C24.7155 28.5234 23.6641 27.472 23.6641 26.1797C23.6641 25.6022 23.8762 25.0478 24.2613 24.6183C24.5699 24.274 24.6474 23.7805 24.4588 23.3582C24.2703 22.9359 23.8511 22.6641 23.3887 22.6641H14.2891C13.642 22.6641 13.1172 23.1888 13.1172 23.8359C13.1172 25.1572 13.1172 69.3896 13.1172 70.7109C13.1172 71.358 13.642 71.8828 14.2891 71.8828C15.6104 71.8828 59.8428 71.8828 61.1641 71.8828C61.8112 71.8828 62.3359 71.358 62.3359 70.7109V47.2734C62.3359 46.6263 61.8112 46.1016 61.1641 46.1016ZM21.4689 25.0078C20.7036 27.9738 22.9517 30.8672 26.0078 30.8672C29.0582 30.8672 31.3132 27.9782 30.5467 25.0078H36.5547V32.9355C36.5547 33.3979 36.8266 33.817 37.2488 34.0056C37.6711 34.1939 38.1646 34.1168 38.5089 33.808C38.9384 33.423 39.4928 33.2109 40.0703 33.2109C41.3627 33.2109 42.4141 34.2623 42.4141 35.5547C42.4141 36.847 41.3627 37.8984 40.0703 37.8984C39.4928 37.8984 38.9384 37.6863 38.5089 37.3013C38.1646 36.9925 37.671 36.9151 37.2488 37.1037C36.8266 37.2921 36.5547 37.7114 36.5547 38.1737V46.1016H28.627C28.1646 46.1016 27.7455 46.3734 27.5569 46.7957C27.3684 47.218 27.4458 47.7115 27.7545 48.0558C28.1395 48.4853 28.3516 49.0397 28.3516 49.6172C28.3516 50.9095 27.3002 51.9609 26.0078 51.9609C24.7155 51.9609 23.6641 50.9095 23.6641 49.6172C23.6641 49.0397 23.8762 48.4853 24.2613 48.0558C24.5699 47.7115 24.6474 47.218 24.4588 46.7957C24.2703 46.3734 23.8511 46.1016 23.3887 46.1016H15.4609V25.0078H21.4689ZM15.4609 48.4453H21.4689C20.7036 51.4113 22.9517 54.3047 26.0078 54.3047C29.0582 54.3047 31.3132 51.4157 30.5467 48.4453H36.5547V57.5449C36.5547 58.0072 36.8266 58.4264 37.2488 58.615C37.6711 58.8034 38.1646 58.7262 38.5089 58.4174C38.9384 58.0324 39.4928 57.8203 40.0703 57.8203C41.3627 57.8203 42.4141 58.8717 42.4141 60.1641C42.4141 61.4564 41.3627 62.5078 40.0703 62.5078C39.4928 62.5078 38.9384 62.2957 38.5089 61.9106C38.1646 61.6018 37.671 61.5245 37.2488 61.713C36.8266 61.9015 36.5547 62.3208 36.5547 62.7831V69.5391H15.4609V48.4453ZM59.9922 69.5391H38.8984V64.703C41.8645 65.4683 44.7578 63.2202 44.7578 60.1641C44.7578 57.1137 41.8688 54.8585 38.8984 55.6252V48.4453H59.9922V69.5391Z" fill="#4085F9"/>
</g>
<defs>
<filter id="filter0_ii_253_1381" x="0" y="-1" width="81.675" height="85.333" filterUnits="userSpaceOnUse" color-interpolation-filters="sRGB">
<feFlood flood-opacity="0" result="BackgroundImageFix"/>
<feBlend mode="normal" in="SourceGraphic" in2="BackgroundImageFix" result="shape"/>
<feColorMatrix in="SourceAlpha" type="matrix" values="0 0 0 0 0 0 0 0 0 0 0 0 0 0 0 0 0 0 127 0" result="hardAlpha"/>
<feOffset dy="-2"/>
<feGaussianBlur stdDeviation="0.5"/>
<feComposite in2="hardAlpha" operator="arithmetic" k2="-1" k3="1"/>
<feColorMatrix type="matrix" values="0 0 0 0 0 0 0 0 0 0 0 0 0 0 0 0 0 0 0.3 0"/>
<feBlend mode="normal" in2="shape" result="effect1_innerShadow_253_1381"/>
<feColorMatrix in="SourceAlpha" type="matrix" values="0 0 0 0 0 0 0 0 0 0 0 0 0 0 0 0 0 0 127 0" result="hardAlpha"/>
<feOffset dy="2"/>
<feGaussianBlur stdDeviation="0.5"/>
<feComposite in2="hardAlpha" operator="arithmetic" k2="-1" k3="1"/>
<feColorMatrix type="matrix" values="0 0 0 0 1 0 0 0 0 1 0 0 0 0 1 0 0 0 0.3 0"/>
<feBlend mode="normal" in2="effect1_innerShadow_253_1381" result="effect2_innerShadow_253_1381"/>
</filter>
<clipPath id="clip0_253_1381">
<rect width="60" height="60" fill="white" transform="translate(13 12)"/>
</clipPath>
</defs>
</svg>
